<?xml version="1.0" encoding="UTF-8"?>
<svg width="70px" height="78px" viewBox="0 0 70 78" version="1.1" xmlns="http://www.w3.org/2000/svg" xmlns:xlink="http://www.w3.org/1999/xlink">
    <title>6CBC3099-2BF0-4525-B90E-68BF9C5235F9</title>
    <g id="Projects" stroke="none" stroke-width="1" fill="none" fill-rule="evenodd">
        <g transform="translate(-978.000000, -237.000000)" id="projects">
            <g transform="translate(204.000000, 174.000000)">
                <g id="Ambient-Copy-2" transform="translate(652.000000, 0.000000)">
                    <g id="Bimmatch" transform="translate(123.000000, 63.000000)">
                        <g id="logo">
                            <polygon id="Rectangle-7-Copy-18" fill="#FFFFFF" transform="translate(33.844353, 45.386841) rotate(-315.000000) translate(-33.844353, -45.386841) " points="12.4733432 23.7957128 35.3953861 22.5092788 56.7219149 43.8358076 33.8443529 45.3868408 32.2933197 68.2644028 10.9667909 46.937874"></polygon>
                            <path d="M0.319056701,15.8977832 L16.5921657,0.766665249 C16.9702014,0.415158795 17.5536632,0.409158677 17.9388477,0.752816439 L33.2487272,14.4121368 C33.6289549,14.7513721 34.2034558,14.750451 34.5825938,14.4099983 L49.7897479,0.754501909 C50.1735995,0.409816484 50.7566615,0.41370865 51.1358773,0.763487848 L67.543474,15.8974462 C67.748725,16.0867645 67.8654725,16.3532768 67.8654725,16.6325067 L67.8654725,46.7881339 C67.8654725,47.0862625 67.7324538,47.3688439 67.5026911,47.558817 L34.5541389,74.8014371 C34.1842075,75.1073048 33.6491308,75.10718 33.2793422,74.8011397 L0.362421926,47.5588046 C0.132873693,47.3688284 -9.84449469e-15,47.0863841 0,46.7884188 L0,16.6301193 C2.06326663e-15,16.3522842 0.11558801,16.0869731 0.319056701,15.8977832 Z" id="Path" stroke="#151515"></path>
                            <line x1="34.0683489" y1="15.8822325" x2="34.0324781" y2="44.7311828" id="Line-2" stroke="#151515" stroke-linecap="square"></line>
                            <path d="M51.1179782,60.4669739 L51.1179782,30.7541569 C51.1179782,30.4694577 50.9966289,30.1982553 50.7843521,30.0085391 L34.6603994,15.5982342 C34.2834339,15.2613325 33.7143117,15.2587871 33.3343477,15.5923035 L16.9110498,30.0079871 C16.6947403,30.1978544 16.5707276,30.4717173 16.5707276,30.7595356 L16.5707276,60.4669739 L16.5707276,60.4669739" id="Line-2-Copy" stroke="#151515" stroke-linecap="square"></path>
                            <line x1="0.824242424" y1="16.9206349" x2="50.7058571" y2="60.4669739" id="Line" stroke="#151515" stroke-linecap="square"></line>
                            <line x1="16.5888124" y1="16.9206349" x2="66.7637857" y2="60.4669739" id="Line" stroke="#151515" stroke-linecap="square" transform="translate(41.676224, 38.786994) scale(-1, 1) translate(-41.676224, -38.786994) "></line>
                        </g>
                    </g>
                </g>
            </g>
        </g>
    </g>
</svg>