<?xml version="1.0" encoding="UTF-8"?>
<svg width="33px" height="36px" viewBox="0 0 33 36" version="1.1" xmlns="http://www.w3.org/2000/svg" xmlns:xlink="http://www.w3.org/1999/xlink">
    <g id="Logo" stroke="none" stroke-width="1" fill="none" fill-rule="evenodd">
        <g id="logo-header" transform="translate(-2.000000, -1.000000)">
            <g id="Bimmatch" transform="translate(3.000000, 2.000000)">
                <g id="logo">
                    <polygon id="Rectangle-7-Copy-18" fill="#F3516B" transform="translate(15.429043, 20.365890) rotate(-315.000000) translate(-15.429043, -20.365890) " points="5.84027609 10.6767749 16.2125278 10.0128092 25.7821241 19.5824055 15.4290432 20.3658901 14.6455586 30.7189709 5.07596238 21.1493747"></polygon>
                    <path d="M0.324859172,6.96942557 L7.20681228,0.670987656 C7.58316284,0.326547552 8.15846182,0.320640832 8.54180518,0.657280992 L14.8000027,6.15303446 C15.1783772,6.48531119 15.744799,6.48440479 16.1221082,6.15091878 L22.3357689,0.658954054 C22.7178028,0.321292128 23.2927046,0.32512364 23.670204,0.66784758 L30.6108529,6.96912057 C30.8196241,7.1586597 30.9386713,7.42753083 30.9386713,7.7095069 L30.9386713,20.7304192 C30.9386713,21.0312675 30.8032254,21.316129 30.5698847,21.5060284 L16.0935007,33.2873305 C15.7257356,33.5866284 15.1983391,33.5865058 14.8307133,33.2870368 L0.368425934,21.5060199 C0.135299898,21.3161148 -1.18442199e-15,21.0313897 0,20.7307043 L0,7.70711444 C1.87683226e-16,7.42653249 0.117876992,7.1588579 0.324859172,6.96942557 Z" id="Path" stroke="#151515"></path>
                    <line x1="15.5311591" y1="7.12664277" x2="15.5148062" y2="20.0716846" id="Line-2" stroke="#151515" stroke-linecap="square"></line>
                    <path d="M23.3037842,27.1326165 L23.3037842,14.05134 C23.3037842,13.7638991 23.1800952,13.4903575 22.9642746,13.3005055 L16.1545691,7.31017698 C15.7794562,6.9801994 15.2183606,6.97769504 14.840317,7.30431101 L7.90054052,13.3000264 C7.68067645,13.489981 7.55430229,13.7661705 7.55430229,14.0567268 L7.55430229,27.1326165 L7.55430229,27.1326165" id="Line-2-Copy" stroke="#151515" stroke-linecap="square"></path>
                    <line x1="0.375757576" y1="7.59259259" x2="23.1159055" y2="27.1326165" id="Line" stroke="#151515" stroke-linecap="square"></line>
                    <line x1="7.56254682" y1="7.59259259" x2="30.4364317" y2="27.1326165" id="Line" stroke="#151515" stroke-linecap="square" transform="translate(18.999455, 17.404421) scale(-1, 1) translate(-18.999455, -17.404421) "></line>
                </g>
            </g>
        </g>
    </g>
</svg>