<?xml version="1.0" encoding="utf-8"?>
<!-- Generator: Adobe Illustrator 21.0.0, SVG Export Plug-In . SVG Version: 6.00 Build 0)  -->
<svg version="1.1" id="Layer_1" xmlns="http://www.w3.org/2000/svg" xmlns:xlink="http://www.w3.org/1999/xlink" x="0px" y="0px"
	 viewBox="0 0 25.1 24" style="enable-background:new 0 0 25.1 24;" xml:space="preserve">
<style type="text/css">
	.st0{fill:#FFFFFF;}
</style>
<g>
	<path class="st0" d="M4.7,23.9c-0.7,0-1-0.3-1.4-0.9l-3.1-5.7C0,16.9,0,16.8,0,16.5l4.9,0.2L6,17.8h9.8l-8.1,5
		C7.3,23.1,5.8,23.9,4.7,23.9z"/>
	<path class="st0" d="M6,17.8H1.8c-1.3,0-1.8-0.7-1.8-1.3c0-0.4,0.1-0.6,0.3-1.1L6.5,0.7l0.1-0.1l0.1-0.1l0.2-0.2l0.3-0.1l0.4-0.1
		l0.6,0l4.3,1.6l-1.4,4.5L6,17.8z"/>
	<path class="st0" d="M18.4,23.9L8.7,1C8.5,0.6,8.2,0.1,7.6,0.1c-0.6,0-0.9,0.3-1.1,0.6c0.1-0.2,0.3-0.7,1.1-0.7h6.7
		c0.6,0,0.9,0.4,1,0.7l9.8,23.2H18.4z"/>
</g>
</svg>
