<?xml version="1.0" encoding="utf-8"?>
<!-- Generator: Adobe Illustrator 21.0.0, SVG Export Plug-In . SVG Version: 6.00 Build 0)  -->
<svg version="1.1" id="Layer_1" xmlns="http://www.w3.org/2000/svg" xmlns:xlink="http://www.w3.org/1999/xlink" x="0px" y="0px"
	 viewBox="0 0 16.1 15.2" style="enable-background:new 0 0 16.1 15.2;" xml:space="preserve">
<style type="text/css">
	.st0{fill:#519EF3;}
</style>
<g>
	<path class="st0" d="M15.4,10c-0.4,0-0.7,0.3-0.7,0.7v3.2H1.3v-3.2C1.3,10.3,1,10,0.7,10S0,10.3,0,10.7v3.9c0,0.4,0.3,0.7,0.7,0.7
		h14.7c0.4,0,0.7-0.3,0.7-0.7v-3.9C16.1,10.3,15.8,10,15.4,10z"/>
	<path class="st0" d="M8,11.5c0.4,0.4,0.8,0.2,1,0l3.8-4.1c0.3-0.3,0.2-0.7,0-0.9c-0.3-0.3-0.7-0.2-0.9,0L9.2,9.4V0.7
		C9.2,0.3,8.9,0,8.5,0S7.8,0.3,7.8,0.7v8.7L5.2,6.5c-0.3-0.3-0.7-0.3-0.9,0C4,6.8,4,7.2,4.3,7.4L8,11.5z"/>
</g>
</svg>
