<?xml version="1.0" encoding="utf-8"?>
<!-- Generator: Adobe Illustrator 21.0.0, SVG Export Plug-In . SVG Version: 6.00 Build 0)  -->
<svg version="1.1" id="Layer_1" xmlns="http://www.w3.org/2000/svg" xmlns:xlink="http://www.w3.org/1999/xlink" x="0px" y="0px"
	 viewBox="0 0 12.9 24" style="enable-background:new 0 0 12.9 24;" xml:space="preserve">
<style type="text/css">
	.st0{fill:#FFFFFF;}
</style>
<path class="st0" d="M12.4,0.1l-3.1,0C5.8,0.1,3.6,2.4,3.6,6v2.7H0.5C0.2,8.7,0,8.9,0,9.1v3.9c0,0.3,0.2,0.5,0.5,0.5h3.1v9.9
	c0,0.3,0.2,0.5,0.5,0.5h4c0.3,0,0.5-0.2,0.5-0.5v-9.9h3.6c0.3,0,0.5-0.2,0.5-0.5l0-3.9c0-0.1-0.1-0.3-0.1-0.3
	c-0.1-0.1-0.2-0.1-0.3-0.1H8.6V6.4c0-1.1,0.3-1.7,1.7-1.7l2.1,0c0.3,0,0.5-0.2,0.5-0.5V0.6C12.9,0.3,12.6,0.1,12.4,0.1z"/>
</svg>
