<?xml version="1.0" encoding="utf-8"?>
<!-- Generator: Adobe Illustrator 21.0.0, SVG Export Plug-In . SVG Version: 6.00 Build 0)  -->
<svg version="1.1" id="Layer_1" xmlns="http://www.w3.org/2000/svg" xmlns:xlink="http://www.w3.org/1999/xlink" x="0px" y="0px"
	 viewBox="0 0 16 16" style="enable-background:new 0 0 16 16;" xml:space="preserve">
<style type="text/css">
	.st0{fill:#FFFFFF;}
</style>
<g>
	<path class="st0" d="M13.8,2.2c-0.1-0.1-0.4-0.1-0.5,0L8.4,7.1c-0.1,0.1-0.1,0.4,0,0.5c0.1,0.1,0.2,0.1,0.2,0.1s0.2,0,0.2-0.1
		l4.9-4.9C13.9,2.5,13.9,2.3,13.8,2.2z"/>
	<path class="st0" d="M13.6,2.1c-0.2,0-0.3,0.2-0.3,0.3v4.2c0,0.2,0.2,0.3,0.3,0.3s0.3-0.2,0.3-0.3V2.4C13.9,2.2,13.7,2.1,13.6,2.1z
		"/>
	<path class="st0" d="M13.6,2.1H9.4C9.2,2.1,9,2.2,9,2.4s0.2,0.3,0.3,0.3h4.2c0.2,0,0.3-0.2,0.3-0.3C13.9,2.2,13.7,2.1,13.6,2.1z"/>
	<path class="st0" d="M7.5,8.4c-0.1-0.1-0.4-0.1-0.5,0l-4.9,4.9c-0.1,0.1-0.1,0.4,0,0.5c0.1,0.1,0.2,0.1,0.2,0.1s0.2,0,0.2-0.1
		l4.9-4.9C7.7,8.8,7.7,8.6,7.5,8.4z"/>
	<path class="st0" d="M2.4,9C2.2,9,2.1,9.2,2.1,9.4v4.2c0,0.2,0.2,0.3,0.3,0.3s0.3-0.2,0.3-0.3V9.4C2.8,9.2,2.6,9,2.4,9z"/>
	<path class="st0" d="M6.6,13.2H2.4c-0.2,0-0.3,0.2-0.3,0.3s0.2,0.3,0.3,0.3h4.2c0.2,0,0.3-0.2,0.3-0.3S6.8,13.2,6.6,13.2z"/>
	<path class="st0" d="M1,0.7C0.9,0.7,0.7,0.9,0.7,1v13.9c0,0.2,0.2,0.3,0.3,0.3h13.9c0.2,0,0.3-0.2,0.3-0.3V1c0-0.2-0.2-0.3-0.3-0.3
		H1z M14.9,16H1c-0.6,0-1-0.5-1-1V1c0-0.6,0.5-1,1-1h13.9c0.6,0,1,0.5,1,1v13.9C16,15.5,15.5,16,14.9,16z"/>
</g>
</svg>
