<?xml version="1.0" encoding="utf-8"?>
<!-- Generator: Adobe Illustrator 21.0.0, SVG Export Plug-In . SVG Version: 6.00 Build 0)  -->
<svg version="1.1" id="Layer_1" xmlns="http://www.w3.org/2000/svg" xmlns:xlink="http://www.w3.org/1999/xlink" x="0px" y="0px"
	 viewBox="0 0 8.7 12" style="enable-background:new 0 0 8.7 12;" xml:space="preserve">
<style type="text/css">
	.st0{fill:#454545;}
</style>
<g>
	<path class="st0" d="M4.3,0.7c-2,0-3.6,1.6-3.6,3.5c0,0.7,0.2,1.3,0.5,1.8L4.4,11l3-5c0.3-0.5,0.5-1.2,0.5-1.8
		C7.9,2.3,6.3,0.7,4.3,0.7z M4.4,12L4.4,12c-0.1,0-0.2-0.1-0.3-0.2L0.6,6.4C0.2,5.8,0,5,0,4.2C0,1.9,1.9,0,4.3,0
		c2.4,0,4.3,1.9,4.3,4.2c0,0.8-0.2,1.5-0.6,2.2l-3.4,5.4C4.6,11.9,4.5,12,4.4,12z"/>
	<path class="st0" d="M4.3,2.8c-0.8,0-1.4,0.6-1.4,1.4c0,0.8,0.7,1.4,1.4,1.4c0.8,0,1.4-0.6,1.4-1.4C5.8,3.4,5.1,2.8,4.3,2.8z
		 M4.3,6.3c-1.2,0-2.2-0.9-2.2-2.1c0-1.2,1-2.1,2.2-2.1c1.2,0,2.2,0.9,2.2,2.1C6.5,5.4,5.5,6.3,4.3,6.3z"/>
</g>
</svg>
