<svg xmlns="http://www.w3.org/2000/svg" width="10.276" height="13.67" viewBox="0 0 10.276 13.67">
  <path id="lock-white" d="M9.547,13.67H.729A.863.863,0,0,1,0,12.72V6.467A.861.861,0,0,1,.729,5.52H.99V4.274A4.213,4.213,0,0,1,5.016,0H5.26A4.213,4.213,0,0,1,9.286,4.274V5.52h.261a.861.861,0,0,1,.729.947V12.72A.863.863,0,0,1,9.547,13.67ZM5.138,7.639l-.122,0A1.119,1.119,0,0,0,3.987,8.778a1.136,1.136,0,0,0,.325.809v1.889a.4.4,0,0,0,.388.4h.875a.4.4,0,0,0,.389-.4V9.587a1.138,1.138,0,0,0,.324-.809A1.119,1.119,0,0,0,5.26,7.641Zm0-5.874A2.474,2.474,0,0,0,2.707,4.274V5.52H7.57V4.274A2.474,2.474,0,0,0,5.138,1.765Z" transform="translate(0 0)" fill="#fff"/>
</svg>
