<svg class="pinterest-icon" xmlns="http://www.w3.org/2000/svg" width="18.222" viewBox="0 0 18.222 23.478">
    <g transform="translate(-913 -158)">
        <g transform="translate(892 122)">
            <g>
                <g>
                    <g transform="translate(21 36)">
                        <path fill="currentColor" d="M4.181,23.36a.309.309,0,0,1-.416.065.468.468,0,0,1-.471-.453A30.26,30.26,0,0,1,4.476,12.608a18.688,18.688,0,0,1,.7-1.881,3.494,3.494,0,0,1,.883-4.29C7.2,5.573,8.72,5.7,9.182,7.172c.55,1.747-.042,4.059-.7,6.1.287.162.522.384.841.545a2.909,2.909,0,0,0,2.579.06,2.785,2.785,0,0,0,.717-.453,6.25,6.25,0,0,0,1.063-1.775c.111-.333.208-.679.305-1.026A5.591,5.591,0,0,0,10.12,3.959c-2.288-.693-5-.305-6.361,1.858a6.645,6.645,0,0,0-.652,4.738,3.12,3.12,0,0,1,.425,1.928.946.946,0,0,1-.162.319,1.3,1.3,0,0,1-1.789.12,2.03,2.03,0,0,1-.527-.638c-2.247-2.2-.462-7.146,1.23-9.13A9.465,9.465,0,0,1,13.879,1.144c3.809,2.057,5.358,7.4,3.656,11.344-1.549,3.592-6.522,5.9-10.11,4.031A18.808,18.808,0,0,1,4.181,23.36Z" />
                        <path fill="currentColor" d="M4.181,23.36a.309.309,0,0,1-.416.065.468.468,0,0,1-.471-.453A30.26,30.26,0,0,1,4.476,12.608a18.688,18.688,0,0,1,.7-1.881,3.494,3.494,0,0,1,.883-4.29C7.2,5.573,8.72,5.7,9.182,7.172c.55,1.747-.042,4.059-.7,6.1.287.162.522.384.841.545a2.909,2.909,0,0,0,2.579.06,2.785,2.785,0,0,0,.717-.453,6.25,6.25,0,0,0,1.063-1.775c.111-.333.208-.679.305-1.026A5.591,5.591,0,0,0,10.12,3.959c-2.288-.693-5-.305-6.361,1.858a6.645,6.645,0,0,0-.652,4.738,3.12,3.12,0,0,1,.425,1.928.946.946,0,0,1-.162.319,1.3,1.3,0,0,1-1.789.12,2.03,2.03,0,0,1-.527-.638c-2.247-2.2-.462-7.146,1.23-9.13A9.465,9.465,0,0,1,13.879,1.144c3.809,2.057,5.358,7.4,3.656,11.344-1.549,3.592-6.522,5.9-10.11,4.031A18.808,18.808,0,0,1,4.181,23.36Z" />
                    </g>
                </g>
            </g>
        </g>
    </g>
</svg>