<?xml version="1.0" encoding="UTF-8"?>
<svg width="18px" height="18px" viewBox="0 0 18 18" version="1.1" xmlns="http://www.w3.org/2000/svg" xmlns:xlink="http://www.w3.org/1999/xlink">
    <title>F1B300D1-7E9C-4376-9142-EBFA9F008489</title>
    <g id="Projects" stroke="none" stroke-width="1" fill="none" fill-rule="evenodd">
        <g transform="translate(-1148.000000, -26.000000)" fill-rule="nonzero" id="Header-signed">
            <g>
                <g id="ring" transform="translate(1148.000000, 26.000000)">
                    <path d="M17.7345403,12.863707 C15.6174343,10.746 15.2988489,9.68340234 15.2988489,6.3 C15.2988489,2.82058594 12.4788652,0 9.00005436,0 C5.52124354,0 2.7012598,2.82062109 2.7012598,6.3 C2.7012598,8.12429297 2.65267394,8.80530469 2.40155325,9.64139062 C2.08926078,10.683 1.44815244,11.680207 0.265251996,12.863707 C-0.301430687,13.430707 0.0999827301,14.4 0.901579097,14.4 L5.895657,14.4 L5.85034067,14.85 C5.85034067,16.589707 7.26035012,18 8.99973795,18 C10.7391258,18 12.1491352,16.589707 12.1491352,14.85 L12.1038189,14.4 L17.0982132,14.4 C17.900126,14.4 18.3015394,13.430707 17.7345403,12.863707 Z M9.08563641,16.9961725 C7.93534529,16.9961725 7.00259939,16.0631322 7.00259939,14.9128392 L7.04455896,14.4961725 L11.1262256,14.4961725 L11.1687385,14.9128392 C11.1687385,16.0631322 10.2359275,16.9961725 9.08563641,16.9961725 Z" id="Shape" fill="#000000"></path>
                    <path d="M1.78695779,12.7881462 C4.24188851,10.4310034 3.89949744,8.46125669 3.89949744,6.10411383 C3.89949744,3.50079073 6.53801912,1.28157402 9.24968757,1.28157402 C11.961356,1.28157402 14.159549,3.61096261 14.1598048,6.21428571 C14.1598048,8.57142857 13.7723558,10.5411753 16.2272865,12.8983181 L1.78695779,12.7881462 Z" id="Path" fill="#F3516B"></path>
                </g>
            </g>
        </g>
    </g>
</svg>