<?xml version="1.0" encoding="utf-8"?>
<!-- Generator: Adobe Illustrator 21.0.0, SVG Export Plug-In . SVG Version: 6.00 Build 0)  -->
<svg version="1.1" id="Layer_1" xmlns="http://www.w3.org/2000/svg" xmlns:xlink="http://www.w3.org/1999/xlink" x="0px" y="0px"
	 viewBox="0 0 16.1 16" style="enable-background:new 0 0 16.1 16;" xml:space="preserve">
<style type="text/css">
	.st0{fill:#010101;}
</style>
<path class="st0" d="M2.6,5.1c0.1,0,0.2,0,0.2,0.1L6.9,10c0.1,0.1,0.1,0.2,0,0.3c0,0-1,2.4-0.3,4.8l4.1-4.1l4.5-4.5
	c-0.6-0.2-1.3-0.3-1.9-0.3c-1.6,0-2.8,0.6-2.8,0.6c0,0-0.1,0-0.1,0c-0.1,0-0.1,0-0.2-0.1L5.2,2.8C5.2,2.8,5.1,2.7,5.1,2.5
	c0.1-0.8-0.1-1.4-0.3-1.8L0.8,4.9c0.5,0.3,1,0.3,1.4,0.3C2.4,5.2,2.5,5.1,2.6,5.1C2.5,5.1,2.6,5.1,2.6,5.1z M6.5,16
	C6.5,16,6.4,16,6.5,16c-0.2,0-0.2-0.1-0.3-0.2c-1-2.4-0.2-4.9,0.1-5.5L2.4,5.8c-0.1,0-0.2,0-0.3,0c-0.6,0-1.4-0.1-2-0.6
	C0,5.1,0,5,0,4.9c0-0.1,0-0.2,0.1-0.2l4.6-4.6C4.7,0,4.8,0,4.9,0l0,0C5,0,5.1,0,5.1,0.1c0,0,0.8,1,0.6,2.4l4.5,3.8
	c0.4-0.2,1.5-0.6,2.9-0.6c0.9,0,1.8,0.2,2.6,0.5c0.1,0,0.2,0.1,0.2,0.2c0,0.1,0,0.2-0.1,0.3l-4.4,4.4l4.1,4.1
	c0.1,0.1,0.1,0.1,0.1,0.2s0,0.2-0.1,0.2c-0.1,0.1-0.1,0.1-0.2,0.1s-0.2,0-0.2-0.1l-4.1-4.1l-4.4,4.4C6.6,16,6.6,16,6.5,16z"/>
</svg>
