<?xml version="1.0" encoding="UTF-8"?>
<svg width="18px" height="18px" viewBox="0 0 18 18" version="1.1" xmlns="http://www.w3.org/2000/svg" xmlns:xlink="http://www.w3.org/1999/xlink">
    <!-- Generator: sketchtool 61 (101010) - https://sketch.com -->
    <title>661BB48A-DE6A-434B-942A-D0641B4A4770</title>
    <desc>Created with sketchtool.</desc>
    <g id="Products" stroke="none" stroke-width="1" fill="none" fill-rule="evenodd">
        <g id="Products-Desktop-HD" transform="translate(-1025.000000, -107.000000)" fill="#AAAAAA" fill-rule="nonzero">
            <g id="Search" transform="translate(1015.000000, 96.000000)">
                <g id="search-defult">
                    <g id="defult">
                        <path d="M12.1944569,13.1949327 C9.26851436,16.1221441 9.26851436,20.884731 12.1944569,23.8119424 C14.800652,26.4175031 18.8596678,26.6966476 21.7843414,24.6620644 C21.8458801,24.953263 21.9867213,25.2311387 22.213209,25.4576264 L24.5719806,27.816398 C25.1930772,28.4362258 26.1967288,28.4362258 26.8146533,27.816398 C27.4351156,27.1959357 27.4351156,26.1922842 26.8146533,25.5737252 L24.4558818,23.2136848 C24.2306628,22.9891003 23.9521527,22.8476248 23.6609542,22.7860861 C25.6968063,19.860778 25.4176617,15.8023967 22.8108321,13.1949327 C19.8842552,10.2683558 15.1210339,10.2683558 12.1944569,13.1949327 Z M21.4652284,22.4663387 C19.2802879,24.6512793 15.7243668,24.6512793 13.5400606,22.4663387 C11.3563888,20.2813981 11.3563888,16.7261114 13.5400606,14.5411708 C15.7243668,12.3568646 19.2802879,12.3568646 21.4652284,14.5411708 C23.6501691,16.7261114 23.6501691,20.2813981 21.4652284,22.4663387 L21.4652284,22.4663387 Z" id="Shape"></path>
                    </g>
                </g>
            </g>
        </g>
    </g>
</svg>