<?xml version="1.0" encoding="utf-8"?>
<!-- Generator: Adobe Illustrator 21.0.0, SVG Export Plug-In . SVG Version: 6.00 Build 0)  -->
<svg version="1.1" id="Layer_1" xmlns="http://www.w3.org/2000/svg" xmlns:xlink="http://www.w3.org/1999/xlink" x="0px" y="0px"
	 viewBox="0 0 16.1 17.3" style="enable-background:new 0 0 16.1 17.3;" xml:space="preserve">
<style type="text/css">
	.st0{fill:#454545;}
</style>
<path class="st0" d="M13,1.3c-1.1,0-2.1,0.9-2.1,2.1c0,1.1,0.9,2.1,2.1,2.1c1.1,0,2.1-0.9,2.1-2.1C15.1,2.2,14.2,1.3,13,1.3z
	 M3.1,6.7C2,6.7,1,7.6,1,8.8c0,1.1,0.9,2.1,2.1,2.1c1.1,0,2.1-0.9,2.1-2.1C5.2,7.6,4.3,6.7,3.1,6.7z M13,12.1
	c-1.1,0-2.1,0.9-2.1,2.1c0,1.1,0.9,2.1,2.1,2.1c1.1,0,2.1-0.9,2.1-2.1C15.1,13.1,14.2,12.1,13,12.1z M13,17.3c-1.7,0-3-1.4-3-3
	c0-0.3,0.1-0.7,0.2-1l-4.7-2.6c-0.6,0.8-1.5,1.2-2.4,1.2c-1.7,0-3-1.4-3-3c0-1.7,1.4-3,3-3c1,0,1.8,0.4,2.4,1.2l4.7-2.6
	C10.1,4,10,3.7,10,3.3c0-1.7,1.4-3,3-3c1.7,0,3,1.4,3,3c0,1.7-1.4,3-3,3c-0.9,0-1.8-0.4-2.4-1.2L6,7.8c0.1,0.3,0.2,0.7,0.2,1
	c0,0.3-0.1,0.7-0.2,1l4.7,2.6c0.6-0.8,1.5-1.2,2.4-1.2c1.7,0,3,1.4,3,3C16.1,15.9,14.7,17.3,13,17.3z"/>
</svg>
