<svg xmlns="http://www.w3.org/2000/svg" width="16" viewBox="0 0 16 17">
    <path fill="currentColor" d="M13,1.3a2.1,2.1,0,1,0,2.1,2.1A2.051,2.051,0,0,0,13,1.3ZM3.1,6.7A2.1,2.1,0,1,0,5.2,8.8,2.051,2.051,0,0,0,3.1,6.7ZM13,12.1a2.1,2.1,0,1,0,2.1,2.1A2.112,2.112,0,0,0,13,12.1Zm0,5.2a3.009,3.009,0,0,1-3-3,3.553,3.553,0,0,1,.2-1L5.5,10.7A3,3,0,1,1,3.1,5.9,2.851,2.851,0,0,1,5.5,7.1l4.7-2.6A5.987,5.987,0,0,1,10,3.3a3,3,0,1,1,.6,1.8L6,7.8a3.553,3.553,0,0,1,.2,1,3.553,3.553,0,0,1-.2,1l4.7,2.6a3,3,0,0,1,5.4,1.8A3.116,3.116,0,0,1,13,17.3Z" transform="translate(-0.1 -0.3)"/>
</svg>