<svg xmlns="http://www.w3.org/2000/svg" width="18" height="16" viewBox="0 0 18 16">
  <path id="system-white" d="M9,16a1.987,1.987,0,0,1-.882-.207L.552,12.014a1,1,0,0,1,0-1.784l1.34-.669-1.34-.67a1,1,0,0,1,0-1.784l1.34-.67-1.34-.67a1,1,0,0,1,0-1.783L8.118.207a1.981,1.981,0,0,1,1.764,0l7.566,3.778a1,1,0,0,1,0,1.784l-1.34.67,1.34.67a1,1,0,0,1,0,1.784l-1.34.67,1.34.669a1,1,0,0,1,0,1.784L9.882,15.793A1.987,1.987,0,0,1,9,16ZM2.817,10.023l-1.9.947a.163.163,0,0,0-.095.152.165.165,0,0,0,.095.153l7.566,3.779a1.154,1.154,0,0,0,1.024,0l7.566-3.778a.171.171,0,0,0,0-.305l-1.9-.947-5.3,2.648a1.99,1.99,0,0,1-1.764,0l-5.3-2.648Zm0-3.122-1.9.946A.165.165,0,0,0,.827,8a.163.163,0,0,0,.095.152l7.566,3.779a1.151,1.151,0,0,0,1.024,0l7.566-3.779a.171.171,0,0,0,0-.305L15.183,6.9l-5.3,2.647a1.982,1.982,0,0,1-1.764,0L2.817,6.9ZM9,.826a1.15,1.15,0,0,0-.512.12L.922,4.725a.17.17,0,0,0,0,.305L8.488,8.809a1.157,1.157,0,0,0,1.024,0L17.078,5.03a.17.17,0,0,0,0-.305L9.512.946A1.15,1.15,0,0,0,9,.826Z" transform="translate(0 0)" fill="#fff"/>
</svg>
