<?xml version="1.0" encoding="UTF-8"?>
<svg width="141px" height="38px" viewBox="0 0 141 38" version="1.1" xmlns="http://www.w3.org/2000/svg" xmlns:xlink="http://www.w3.org/1999/xlink">
    <g id="logo-header" stroke="none" stroke-width="1" fill="none" fill-rule="evenodd">
        <g id="Bimmatch" transform="translate(3.000000, 2.000000)">
            <g id="logo">
                <polygon id="Rectangle-7-Copy-18" fill="#F3516B" transform="translate(15.429043, 20.365890) rotate(-315.000000) translate(-15.429043, -20.365890) " points="5.84027609 10.6767749 16.2125278 10.0128092 25.7821241 19.5824055 15.4290432 20.3658901 14.6455586 30.7189709 5.07596238 21.1493747"></polygon>
                <path d="M0.324859172,6.96942557 L7.20681228,0.670987656 C7.58316284,0.326547552 8.15846182,0.320640832 8.54180518,0.657280992 L14.8000027,6.15303446 C15.1783772,6.48531119 15.744799,6.48440479 16.1221082,6.15091878 L22.3357689,0.658954054 C22.7178028,0.321292128 23.2927046,0.32512364 23.670204,0.66784758 L30.6108529,6.96912057 C30.8196241,7.1586597 30.9386713,7.42753083 30.9386713,7.7095069 L30.9386713,20.7304192 C30.9386713,21.0312675 30.8032254,21.316129 30.5698847,21.5060284 L16.0935007,33.2873305 C15.7257356,33.5866284 15.1983391,33.5865058 14.8307133,33.2870368 L0.368425934,21.5060199 C0.135299898,21.3161148 -1.18442199e-15,21.0313897 0,20.7307043 L0,7.70711444 C1.87683226e-16,7.42653249 0.117876992,7.1588579 0.324859172,6.96942557 Z" id="Path" stroke="#151515"></path>
                <line x1="15.5311591" y1="7.12664277" x2="15.5148062" y2="20.0716846" id="Line-2" stroke="#151515" stroke-linecap="square"></line>
                <path d="M23.3037842,27.1326165 L23.3037842,14.05134 C23.3037842,13.7638991 23.1800952,13.4903575 22.9642746,13.3005055 L16.1545691,7.31017698 C15.7794562,6.9801994 15.2183606,6.97769504 14.840317,7.30431101 L7.90054052,13.3000264 C7.68067645,13.489981 7.55430229,13.7661705 7.55430229,14.0567268 L7.55430229,27.1326165 L7.55430229,27.1326165" id="Line-2-Copy" stroke="#151515" stroke-linecap="square"></path>
                <line x1="0.375757576" y1="7.59259259" x2="23.1159055" y2="27.1326165" id="Line" stroke="#151515" stroke-linecap="square"></line>
                <line x1="7.56254682" y1="7.59259259" x2="30.4364317" y2="27.1326165" id="Line" stroke="#151515" stroke-linecap="square" transform="translate(18.999455, 17.404421) scale(-1, 1) translate(-18.999455, -17.404421) "></line>
            </g>
            <g id="bimmatch" transform="translate(39.000000, 9.000000)" fill-rule="nonzero">
                <path d="M4.35821229,16.847191 C4.91865922,16.847191 5.50122905,16.7669663 6.10592179,16.6065169 C6.71061453,16.4460674 7.2747486,16.1480899 7.79832402,15.7125843 C8.32189944,15.2770787 8.75329609,14.6505618 9.09251397,13.8330337 C9.43173184,13.0155056 9.60134078,11.9496629 9.60134078,10.6355056 C9.60134078,8.86292135 9.18837989,7.46089888 8.3624581,6.4294382 C7.53653631,5.39797753 6.26815642,4.88224719 4.55731844,4.88224719 C4.23284916,4.88224719 3.84938547,4.92808989 3.40692737,5.01977528 C2.96446927,5.11146067 2.53307263,5.22606742 2.11273743,5.36359551 C1.93759777,5.42089888 1.77334032,5.47952871 1.61996508,5.53948502 L1.59284916,5.55021348 L1.59284916,0.229213483 L-2.61987824e-15,0.229213483 L-2.61987824e-15,14.5550562 C-2.61987824e-15,15.0134831 0.117988827,15.3878652 0.35396648,15.6782022 C0.589944134,15.9685393 0.910726257,16.201573 1.31631285,16.3773034 C1.72189944,16.5530337 2.18648045,16.6752809 2.71005587,16.7440449 C3.23363128,16.812809 3.78301676,16.847191 4.35821229,16.847191 Z M4.20335196,15.334382 C3.84938547,15.334382 3.46960894,15.3076404 3.06402235,15.2541573 C2.65843575,15.2006742 2.31184358,15.0898876 2.02424581,14.9217978 C1.73664804,14.7537079 1.59284916,14.501573 1.59284916,14.1653933 L1.59284916,14.1653933 L1.59284916,7.19730337 C2.05005587,6.92224719 2.54413408,6.71977528 3.0750838,6.58988764 C3.60603352,6.46 4.10011173,6.39505618 4.55731844,6.39505618 C5.36849162,6.39505618 6.01743017,6.57460674 6.50413408,6.93370787 C6.99083799,7.29280899 7.34849162,7.7894382 7.57709497,8.42359551 C7.80569832,9.05775281 7.92,9.79505618 7.92,10.6355056 C7.92,11.4606742 7.82782123,12.2285393 7.64346369,12.9391011 C7.45910615,13.6496629 7.10145251,14.2265169 6.57050279,14.6696629 C6.03955307,15.112809 5.25050279,15.334382 4.20335196,15.334382 Z M14.5789944,3.02561798 L14.5789944,1.21483146 L12.809162,1.21483146 L12.809162,3.02561798 L14.5789944,3.02561798 Z M14.4905028,16.5033708 L14.4905028,5.06561798 L12.8976536,5.06561798 L12.8976536,16.5033708 L14.4905028,16.5033708 Z M19.9327374,16.5033708 L19.9327374,6.80764045 C20.4341899,6.65483146 20.9282682,6.54022472 21.4149721,6.46382022 C21.901676,6.38741573 22.3736313,6.34921348 22.830838,6.34921348 C23.4945251,6.34921348 24.0254749,6.43707865 24.4236872,6.61280899 C24.8218994,6.78853933 25.1168715,7.01775281 25.3086034,7.30044944 C25.5003352,7.58314607 25.6293855,7.87730337 25.6957542,8.18292135 C25.7621229,8.48853933 25.7953073,8.7788764 25.7953073,9.05393258 L25.7953073,9.05393258 L25.7953073,16.5033708 L27.3881564,16.5033708 L27.3881564,9.05393258 C27.3881564,8.36031265 27.300083,7.74624583 27.1239362,7.21173212 L27.0950279,7.12739326 L27.1793162,7.07627865 C27.5448849,6.8588824 27.9064879,6.69490137 28.2641251,6.58433558 L28.3615642,6.55550562 C28.8482682,6.41797753 29.3202235,6.34921348 29.7774302,6.34921348 C30.4411173,6.34921348 30.972067,6.43707865 31.3702793,6.61280899 C31.7684916,6.78853933 32.0634637,7.01775281 32.2551955,7.30044944 C32.4469274,7.58314607 32.5759777,7.87730337 32.6423464,8.18292135 C32.7087151,8.48853933 32.7418994,8.7788764 32.7418994,9.05393258 L32.7418994,9.05393258 L32.7418994,16.5033708 L34.3347486,16.5033708 L34.3347486,9.05393258 C34.3347486,8.16764045 34.1909497,7.41123596 33.903352,6.7847191 C33.6157542,6.15820225 33.1548603,5.68067416 32.5206704,5.35213483 C31.8864804,5.02359551 31.0310615,4.85932584 29.9544134,4.85932584 C29.4087151,4.85932584 28.8667039,4.91280899 28.3283799,5.01977528 C27.7900559,5.12674157 27.2701676,5.29483146 26.7687151,5.52404494 C26.614422,5.59457217 26.4608271,5.67233296 26.3079303,5.75732731 L26.2322346,5.8004382 L26.2289293,5.79733794 C26.0555459,5.64394123 25.8613978,5.50839672 25.6464849,5.39070441 L25.5740782,5.35213483 C24.9398883,5.02359551 24.0844693,4.85932584 23.0078212,4.85932584 C22.5948603,4.85932584 22.1855866,4.88224719 21.78,4.92808989 C21.3744134,4.97393258 20.9762011,5.04269663 20.5853631,5.13438202 C20.1945251,5.22606742 19.8110615,5.34449438 19.4349721,5.48966292 C19.0588827,5.63483146 18.6938547,5.79910112 18.3398883,5.98247191 L18.3398883,5.98247191 L18.3398883,16.5033708 L19.9327374,16.5033708 Z" id="bim" fill="#151515"></path>
                <path d="M39.6884916,16.5033708 L39.6884916,6.80764045 C40.1899441,6.65483146 40.6840223,6.54022472 41.1707263,6.46382022 C41.6574302,6.38741573 42.1293855,6.34921348 42.5865922,6.34921348 C43.2502793,6.34921348 43.7812291,6.43707865 44.1794413,6.61280899 C44.5776536,6.78853933 44.8726257,7.01775281 45.0643575,7.30044944 C45.2560894,7.58314607 45.3851397,7.87730337 45.4515084,8.18292135 C45.5178771,8.48853933 45.5510615,8.7788764 45.5510615,9.05393258 L45.5510615,9.05393258 L45.5510615,16.5033708 L47.1439106,16.5033708 L47.1439106,9.05393258 C47.1439106,8.36031265 47.0558372,7.74624583 46.8796904,7.21173212 L46.8507821,7.12739326 L46.9350704,7.07627865 C47.3006391,6.8588824 47.6622421,6.69490137 48.0198793,6.58433558 L48.1173184,6.55550562 C48.6040223,6.41797753 49.0759777,6.34921348 49.5331844,6.34921348 C50.1968715,6.34921348 50.7278212,6.43707865 51.1260335,6.61280899 C51.5242458,6.78853933 51.8192179,7.01775281 52.0109497,7.30044944 C52.2026816,7.58314607 52.3317318,7.87730337 52.3981006,8.18292135 C52.4644693,8.48853933 52.4976536,8.7788764 52.4976536,9.05393258 L52.4976536,9.05393258 L52.4976536,16.5033708 L54.0905028,16.5033708 L54.0905028,9.05393258 C54.0905028,8.16764045 53.9467039,7.41123596 53.6591061,6.7847191 C53.3715084,6.15820225 52.9106145,5.68067416 52.2764246,5.35213483 C51.6422346,5.02359551 50.7868156,4.85932584 49.7101676,4.85932584 C49.1644693,4.85932584 48.6224581,4.91280899 48.0841341,5.01977528 C47.5458101,5.12674157 47.0259218,5.29483146 46.5244693,5.52404494 C46.3701762,5.59457217 46.2165813,5.67233296 46.0636845,5.75732731 L45.9879888,5.8004382 L45.9846835,5.79733794 C45.8113001,5.64394123 45.617152,5.50839672 45.4022391,5.39070441 L45.3298324,5.35213483 C44.6956425,5.02359551 43.8402235,4.85932584 42.7635754,4.85932584 C42.3506145,4.85932584 41.9413408,4.88224719 41.5357542,4.92808989 C41.1301676,4.97393258 40.7319553,5.04269663 40.3411173,5.13438202 C39.9502793,5.22606742 39.5668156,5.34449438 39.1907263,5.48966292 C38.8146369,5.63483146 38.4496089,5.79910112 38.0956425,5.98247191 L38.0956425,5.98247191 L38.0956425,16.5033708 L39.6884916,16.5033708 Z M61.6565363,16.847191 C62.5119553,16.847191 63.312067,16.7860674 64.0568715,16.6638202 C64.801676,16.541573 65.4063687,16.2817978 65.8709497,15.8844944 C66.3355307,15.487191 66.5678212,14.8835955 66.5678212,14.0737079 L66.5678212,14.0737079 L66.5678212,8.52674157 C66.5678212,8.03775281 66.5051397,7.59842697 66.3797765,7.20876404 C66.2544134,6.81910112 66.0774302,6.4752809 65.8488268,6.17730337 C65.6202235,5.87932584 65.3436872,5.63483146 65.0192179,5.44382022 C64.6947486,5.25280899 64.3260335,5.10764045 63.9130726,5.00831461 C63.5001117,4.90898876 63.0502793,4.85932584 62.5635754,4.85932584 C61.8408939,4.85932584 61.0960894,4.93955056 60.329162,5.1 C59.5622346,5.26044944 58.9501676,5.49348315 58.4929609,5.79910112 L58.4929609,5.79910112 L58.4929609,7.4494382 C58.9649162,7.06741573 59.5290503,6.78853933 60.1853631,6.61280899 C60.841676,6.43707865 61.4648045,6.34921348 62.0547486,6.34921348 C62.9839106,6.34921348 63.6992179,6.55550562 64.2006704,6.96808989 C64.7021229,7.38067416 64.9528492,8.03011236 64.9528492,8.91640449 L64.9528492,8.91640449 L64.9526648,10.2697191 L64.8827933,10.2292884 C64.7148231,10.1344902 64.5366108,10.0455875 64.3481564,9.96258011 L64.2338547,9.91348315 C63.8872626,9.76831461 63.4927374,9.65752809 63.0502793,9.5811236 C62.6078212,9.5047191 62.0842458,9.46651685 61.4795531,9.46651685 C60.6831285,9.46651685 59.9788827,9.59258427 59.3668156,9.8447191 C58.7547486,10.0968539 58.275419,10.5094382 57.9288268,11.0824719 C57.5822346,11.6555056 57.4089385,12.4157303 57.4089385,13.3631461 C57.4089385,14.0507865 57.5379888,14.62 57.7960894,15.0707865 C58.0541899,15.521573 58.3934078,15.8768539 58.813743,16.1366292 C59.2340782,16.3964045 59.6912849,16.5797753 60.1853631,16.6867416 C60.6794413,16.7937079 61.1698324,16.847191 61.6565363,16.847191 Z M62.0326257,15.3802247 C61.5459218,15.3802247 61.0702793,15.3114607 60.6056983,15.1739326 C60.1411173,15.0364045 59.7576536,14.7995506 59.4553073,14.4633708 C59.1529609,14.127191 59.0017877,13.6764045 59.0017877,13.1110112 C59.0017877,12.4080899 59.252514,11.8732584 59.7539665,11.5065169 C60.255419,11.1397753 60.9707263,10.9564045 61.8998883,10.9564045 C62.6668156,10.9564045 63.3710615,11.0519101 64.0126257,11.2429213 C64.365486,11.3479775 64.6726165,11.4634343 64.934017,11.5892916 L64.9526648,11.5985843 L64.9528492,14.1653933 C64.9528492,14.6676255 64.7220048,14.9949381 64.2603162,15.1473311 L64.2117318,15.1624719 C63.7176536,15.3076404 62.9912849,15.3802247 62.0326257,15.3802247 Z M73.8020112,16.6867416 C74.0822346,16.6867416 74.3808939,16.66 74.6979888,16.6065169 C75.0150838,16.5530337 75.2768715,16.4880899 75.483352,16.4116854 L75.483352,16.4116854 L75.483352,14.8530337 C75.3211173,14.9294382 75.1146369,14.994382 74.8639106,15.0478652 C74.6131844,15.1013483 74.3550838,15.1280899 74.0896089,15.1280899 C73.4996648,15.1280899 73.1088268,14.9676404 72.917095,14.6467416 C72.7253631,14.3258427 72.6294972,13.8444944 72.6294972,13.2026966 L72.6294972,13.2026966 L72.6294972,6.57842697 L75.483352,6.57842697 L75.483352,5.06561798 L72.6294972,5.06561798 L72.6294972,1.83370787 L71.036648,1.83370787 L71.036648,5.06561798 L69.1119553,5.06561798 L69.1119553,6.57842697 L71.036648,6.57842697 L71.036648,13.7298876 C71.036648,14.7078652 71.3021229,15.4451685 71.8330726,15.9417978 C72.3640223,16.438427 73.0203352,16.6867416 73.8020112,16.6867416 Z M83.2042458,16.6867416 C83.7646927,16.6867416 84.3214525,16.6332584 84.8745251,16.5262921 C85.4275978,16.4193258 85.9622346,16.2665169 86.4784358,16.0678652 L86.4784358,16.0678652 L86.4784358,14.4633708 C85.9917318,14.6773034 85.4902793,14.8377528 84.9740782,14.9447191 C84.4578771,15.0516854 83.9269274,15.1051685 83.3812291,15.1051685 C82.0686034,15.1051685 81.1136313,14.7651685 80.5163128,14.0851685 C79.9189944,13.4051685 79.6203352,12.3011236 79.6203352,10.7730337 C79.6203352,9.26022472 79.9189944,8.16 80.5163128,7.47235955 C81.1136313,6.7847191 82.0686034,6.44089888 83.3812291,6.44089888 C83.9269274,6.44089888 84.4578771,6.49438202 84.9740782,6.60134831 C85.4902793,6.70831461 85.9917318,6.86876404 86.4784358,7.08269663 L86.4784358,7.08269663 L86.4784358,5.5011236 C85.9622346,5.28719101 85.4275978,5.12674157 84.8745251,5.01977528 C84.3214525,4.91280899 83.7646927,4.85932584 83.2042458,4.85932584 C82.6143017,4.85932584 82.0132961,4.93955056 81.4012291,5.1 C80.789162,5.26044944 80.2287151,5.55460674 79.7198883,5.98247191 C79.2110615,6.41033708 78.8017877,7.01011236 78.492067,7.78179775 C78.1823464,8.55348315 78.027486,9.5505618 78.027486,10.7730337 C78.027486,11.9955056 78.1823464,12.9964045 78.492067,13.7757303 C78.8017877,14.5550562 79.2110615,15.1548315 79.7198883,15.5750562 C80.2287151,15.9952809 80.789162,16.285618 81.4012291,16.4460674 C82.0132961,16.6065169 82.6143017,16.6867416 83.2042458,16.6867416 Z M91.2791061,16.5033708 L91.2791061,7.28898876 C91.8248045,6.98337079 92.3594413,6.7541573 92.8830168,6.60134831 C93.4065922,6.44853933 93.9264804,6.37213483 94.4426816,6.37213483 C95.3865922,6.37213483 96.0945251,6.66247191 96.5664804,7.24314607 C97.0384358,7.82382022 97.2744134,8.64898876 97.2744134,9.71865169 L97.2744134,9.71865169 L97.2744134,16.5033708 L98.8672626,16.5033708 L98.8672626,9.71865169 C98.8672626,8.60314607 98.7013408,7.69011236 98.3694972,6.97955056 C98.0376536,6.26898876 97.558324,5.73797753 96.9315084,5.38651685 C96.3046927,5.03505618 95.5340782,4.85932584 94.6196648,4.85932584 C94.0739665,4.85932584 93.4913966,4.95483146 92.8719553,5.1458427 C92.3478126,5.30746759 91.8447893,5.51559072 91.3628852,5.77021209 L91.2789218,5.81552809 L91.2791061,0 L89.686257,0 L89.686257,16.5033708 L91.2791061,16.5033708 Z" id="match" fill="#F3516B"></path>
            </g>
        </g>
    </g>
</svg>