<?xml version="1.0" encoding="utf-8"?>
<!-- Generator: Adobe Illustrator 21.0.0, SVG Export Plug-In . SVG Version: 6.00 Build 0)  -->
<svg version="1.1" id="Layer_1" xmlns="http://www.w3.org/2000/svg" xmlns:xlink="http://www.w3.org/1999/xlink" x="0px" y="0px"
	 viewBox="0 0 16 16" style="enable-background:new 0 0 16 16;" xml:space="preserve">
<style type="text/css">
	.st0{fill:#F0536B;}
</style>
<path class="st0" d="M6.2,12.7l0,0.4c0,1.2,0.9,2.1,2,2.1c1.1,0,2-1,2-2.1l0-0.4H6.2z M8,16c-1.5,0-2.8-1.3-2.8-2.8l0-0.4H0.8
	c-0.3,0-0.6-0.2-0.7-0.5C-0.1,12,0,11.7,0.2,11.4c1-1,1.6-1.9,1.9-2.9c0.2-0.8,0.3-1.4,0.3-3C2.4,2.5,4.9,0,8,0
	c3.1,0,5.6,2.5,5.6,5.6c0,2.9,0.3,3.9,2.2,5.8c0.2,0.2,0.3,0.6,0.2,0.9c-0.1,0.3-0.4,0.5-0.7,0.5h-4.4l0,0.4C10.8,14.7,9.5,16,8,16z
	"/>
</svg>
