<?xml version="1.0" encoding="utf-8"?>
<!-- Generator: Adobe Illustrator 21.0.0, SVG Export Plug-In . SVG Version: 6.00 Build 0)  -->
<svg version="1.1" id="Layer_1" xmlns="http://www.w3.org/2000/svg" xmlns:xlink="http://www.w3.org/1999/xlink" x="0px" y="0px"
	 viewBox="0 0 24 24" style="enable-background:new 0 0 24 24;" xml:space="preserve">
<style type="text/css">
	.st0{fill:#FFFFFF;}
</style>
<g>
	<path class="st0" d="M23.7,0.3c-0.4-0.4-1-0.4-1.4,0l-22,22c-0.4,0.4-0.4,1,0,1.4C0.5,23.9,0.7,24,1,24c0.2,0,0.5-0.1,0.7-0.3
		l22-22C24,1.3,24,0.7,23.7,0.3z"/>
	<path class="st0" d="M23.7,22.3l-22-22c-0.4-0.4-1-0.4-1.4,0s-0.4,1,0,1.4l22,22c0.2,0.2,0.4,0.3,0.7,0.3c0.2,0,0.5-0.1,0.7-0.3
		C24,23.3,24,22.7,23.7,22.3z"/>
</g>
</svg>
