<svg id="donwload-gray" xmlns="http://www.w3.org/2000/svg" width="16.07" height="15.233" viewBox="0 0 16.07 15.233">
  <path id="Shape" d="M15.4,0a.668.668,0,0,0-.669.669V3.9H1.338V.669A.669.669,0,0,0,0,.669v3.9a.668.668,0,0,0,.669.669H15.4a.668.668,0,0,0,.669-.669V.669A.668.668,0,0,0,15.4,0Z" transform="translate(0 10)" fill="#aaa"/>
  <path id="Shape-2" data-name="Shape" d="M4.025,11.525a.672.672,0,0,0,.981,0L8.853,7.387a.669.669,0,1,0-.981-.911L5.186,9.364V.669a.669.669,0,0,0-1.338,0v8.7L1.162,6.479a.671.671,0,0,0-.984.911l3.847,4.134Z" transform="translate(4 0)" fill="#aaa"/>
</svg>
