<svg class="facebook-icon" xmlns="http://www.w3.org/2000/svg" width="12.483" viewBox="0 0 12.483 23.09">
    <g transform="translate(-0.088)">
        <g transform="translate(-1036 -158)">
            <g transform="translate(892 122)">
                <g>
                    <g>
                        <g transform="translate(120 17.971)">
                            <path fill="currentColor" d="M36.1,18.034l-2.994,0c-3.364,0-5.538,2.23-5.538,5.682v2.62H24.559a.471.471,0,0,0-.471.471v3.8a.471.471,0,0,0,.471.471h3.011v9.579a.471.471,0,0,0,.471.471h3.928a.471.471,0,0,0,.471-.471V31.07h3.52a.471.471,0,0,0,.471-.471V26.8a.471.471,0,0,0-.471-.471H32.439V24.111c0-1.067.254-1.609,1.645-1.609H36.1a.471.471,0,0,0,.471-.471V18.505a.471.471,0,0,0-.47-.471Z" />
                        </g>
                    </g>
                </g>
            </g>
        </g>
    </g>
</svg>