<?xml version="1.0" encoding="utf-8"?>
<!-- Generator: Adobe Illustrator 21.0.0, SVG Export Plug-In . SVG Version: 6.00 Build 0)  -->
<svg version="1.1" id="Layer_1" xmlns="http://www.w3.org/2000/svg" xmlns:xlink="http://www.w3.org/1999/xlink" x="0px" y="0px"
	 viewBox="0 0 24 24" style="enable-background:new 0 0 24 24;" xml:space="preserve">
<style type="text/css">
	.st0{fill:#FFFFFF;}
</style>
<path class="st0" d="M13.2,14.5H19c-1,2.9-3.8,5-7.1,5c-4,0-7.2-3.2-7.4-7.1C4.4,8.1,7.8,4.6,12,4.6c1.9,0,3.7,0.7,5,1.9
	c0.3,0.3,0.8,0.3,1.1,0l2.2-2c0.3-0.3,0.3-0.9,0-1.2c-2.1-2-4.9-3.2-8-3.3C5.6-0.1,0,5.3,0,11.9C0,18.6,5.3,24,12,24
	c6.4,0,11.6-5,12-11.3c0-0.1,0-2.8,0-2.8H13.2c-0.4,0-0.8,0.4-0.8,0.8v2.9C12.4,14.1,12.7,14.5,13.2,14.5z"/>
</svg>
