<svg xmlns="http://www.w3.org/2000/svg" width="30" height="34" viewBox="0 0 30 34">
  <path id="Shape" d="M16.761,34a6.585,6.585,0,0,1-4.631-1.863.3.3,0,0,1-.024-.023L5.318,25.13a1.2,1.2,0,0,1-.326-.635L3.806,17.534.282,13.361a1.191,1.191,0,0,1-.093-1.413A5.123,5.123,0,0,1,1.92,10.27a4.4,4.4,0,0,1,2.224-.56,6.854,6.854,0,0,1,1.9.29,9.283,9.283,0,0,1,3.816,2.237,9.587,9.587,0,0,1,1.206,1.421l.007.009c.076.106.156.214.241.329L22.435,3.409l.019-.019.01-.01a3.665,3.665,0,0,1,2.085-.905c.128-.012.255-.018.377-.018s.25.006.377.018a3.7,3.7,0,0,1,2.6,1.432,1.189,1.189,0,0,1,.234.849,3.414,3.414,0,0,1-.706,3.928l-4.35,4.289a1.512,1.512,0,0,0,.346.116,1,1,0,0,1,.49.221,3.006,3.006,0,0,1,.783,2.712l.114.027a3.211,3.211,0,0,1,1.6.7A3.077,3.077,0,0,1,27.3,19.2a3.4,3.4,0,0,1,1.847.869,3.146,3.146,0,0,1,.841,2.409,3.6,3.6,0,0,1-1.084,2.289L22.873,30.7a1.273,1.273,0,0,1-.881.356H22.5l-1.108,1.085A6.6,6.6,0,0,1,16.761,34ZM4.17,12.151a2.044,2.044,0,0,0-.986.209.584.584,0,0,0-.17.156,1.449,1.449,0,0,1-.112.124l3.038,3.6a1.2,1.2,0,0,1,.268.573l1.181,6.918,6.5,6.685a4.12,4.12,0,0,0,5.746,0l1.473-1.436,6.033-5.922a1.231,1.231,0,0,0,.166-1.356,1.093,1.093,0,0,0-.728-.222.689.689,0,0,0-.462.127,1.266,1.266,0,0,1-1.745,0,1.192,1.192,0,0,1-.034-1.7l.019-.019.277-.284.01-.009.01-.009a.76.76,0,0,0,0-1.123,1.026,1.026,0,0,0-.706-.255.784.784,0,0,0-.543.179,1.268,1.268,0,0,1-1.743-.007,1.188,1.188,0,0,1-.368-.842,1.21,1.21,0,0,1,.351-.867l.52-.517a.76.76,0,0,0,0-1.124.814.814,0,0,0-.578-.246.826.826,0,0,0-.578.242,1.268,1.268,0,0,1-1.71-.04,1.2,1.2,0,0,1-.05-1.672l6.422-6.349c.017-.017.037-.035.063-.057a1.123,1.123,0,0,0,.17-1.56,1.188,1.188,0,0,0-.841-.479c-.038,0-.076-.006-.114-.006a1.214,1.214,0,0,0-.8.313L12.071,16.666a1.257,1.257,0,0,1-.873.347c-.041,0-.082,0-.122-.006a1.247,1.247,0,0,1-.905-.527,23.723,23.723,0,0,0-2.076-2.526,6.9,6.9,0,0,0-2.761-1.626A4.191,4.191,0,0,0,4.17,12.151ZM11.182,7.32a1.286,1.286,0,0,1-.314-.04,1.23,1.23,0,0,1-.89-.869A1.193,1.193,0,0,1,10.32,5.23L12.81,2.8a1.252,1.252,0,0,1,.855-.365H13.7a1.244,1.244,0,0,1,1.147.74,1.185,1.185,0,0,1-.276,1.342L12.081,6.946A1.27,1.27,0,0,1,11.182,7.32Zm-4.942,0a1.27,1.27,0,0,1-.9-.373L2.853,4.519a1.189,1.189,0,0,1-.288-1.327,1.241,1.241,0,0,1,1.154-.759,1.267,1.267,0,0,1,.895.37L7.1,5.23a1.194,1.194,0,0,1,.343,1.182,1.233,1.233,0,0,1-.891.869A1.293,1.293,0,0,1,6.241,7.32Zm2.47-2.428a1.281,1.281,0,0,1-.627-.166A1.207,1.207,0,0,1,7.467,3.66V1.233a1.19,1.19,0,0,1,.35-.864A1.27,1.27,0,0,1,8.692,0h.021a1.266,1.266,0,0,1,.878.355,1.2,1.2,0,0,1,.364.878V3.66a1.211,1.211,0,0,1-.617,1.066A1.281,1.281,0,0,1,8.711,4.892Z" transform="translate(0)" fill="#fff"/>
</svg>
