<svg class="houzz-icon" xmlns="http://www.w3.org/2000/svg" width="13.662" viewBox="0 0 13.662 23.922">
    <g transform="translate(-975 -157)">
        <g transform="translate(892 122)">
            <g>
                <g>
                    <g transform="translate(83 35)">
                        <g>
                            <path fill="currentColor" d="M6.835,23.922l6.827-4.052V11.991L6.835,16.043Z" />
                            <path fill="currentColor" d="M6.835,8.116l6.827,3.874V4.064Z" />
                            <path fill="currentColor" d="M6.835,8.116v7.926l6.827-4.052Z" />
                            <path fill="currentColor" d="M0,12.182v7.925l6.827-4.051Z" />
                            <path fill="currentColor" d="M6.827,0,0,4.052v8.13L6.827,8.13Z" />
                            <path fill="currentColor" d="M6.827,8.13,0,12.182l6.827,3.874Z" />
                        </g>
                        <g>
                            <path fill="currentColor" d="M6.835,23.922l6.827-4.052V11.991L6.835,16.043Z" />
                            <path fill="currentColor" d="M6.835,8.116l6.827,3.874V4.064Z" />
                            <path fill="currentColor" d="M6.835,8.116v7.926l6.827-4.052Z" />
                            <path fill="currentColor" d="M0,12.182v7.925l6.827-4.051Z" />
                            <path fill="currentColor" d="M6.827,0,0,4.052v8.13L6.827,8.13Z" />
                            <path fill="currentColor" d="M6.827,8.13,0,12.182l6.827,3.874Z" />
                        </g>
                    </g>
                </g>
            </g>
        </g>
    </g>
</svg>