<svg xmlns="http://www.w3.org/2000/svg" width="7.111" height="12.444" viewBox="0 0 7.111 12.444">
  <g id="info" transform="translate(-4.444 -1.778)">
    <path id="Shape" d="M3.659,12.444a3.384,3.384,0,0,1-1.905-.462,1.384,1.384,0,0,1-.679-1.174,3.242,3.242,0,0,1,.05-.565,5.39,5.39,0,0,1,.165-.652l.842-2.308c.077-.225.141-.437.19-.628A2.133,2.133,0,0,0,2.4,6.116.721.721,0,0,0,2.162,5.5a1.639,1.639,0,0,0-.9-.175A3.008,3.008,0,0,0,.59,5.4c-.22.051-.418.1-.59.15l.226-.711c.56-.176,1.093-.326,1.585-.446A6.038,6.038,0,0,1,3.245,4.21a3.3,3.3,0,0,1,1.876.455A1.385,1.385,0,0,1,5.78,5.846a5.141,5.141,0,0,1-.045.529,2.875,2.875,0,0,1-.169.7l-.84,2.3A5.059,5.059,0,0,0,4.541,10a2.561,2.561,0,0,0-.082.537.682.682,0,0,0,.265.625,1.85,1.85,0,0,0,.918.166,3.4,3.4,0,0,0,.695-.083A4.731,4.731,0,0,0,6.9,11.1l-.225.711c-.67.2-1.213.362-1.615.47A5.453,5.453,0,0,1,3.659,12.444ZM5.109,2.9a2.393,2.393,0,0,1-1.421-.423A1.238,1.238,0,0,1,3.1,1.454,1.248,1.248,0,0,1,3.688.427,2.378,2.378,0,0,1,5.109,0,2.352,2.352,0,0,1,6.524.427a1.248,1.248,0,0,1,.587,1.027,1.238,1.238,0,0,1-.587,1.023A2.363,2.363,0,0,1,5.109,2.9Z" transform="translate(4.444 1.778)" fill="#444"/>
  </g>
</svg>
