<?xml version="1.0" encoding="utf-8"?>
<!-- Generator: Adobe Illustrator 21.0.0, SVG Export Plug-In . SVG Version: 6.00 Build 0)  -->
<svg version="1.1" id="Layer_1" xmlns="http://www.w3.org/2000/svg" xmlns:xlink="http://www.w3.org/1999/xlink" x="0px" y="0px"
	 viewBox="0 0 25.1 24" style="enable-background:new 0 0 25.1 24;" xml:space="preserve">
<style type="text/css">
	.st0{fill:#FFFFFF;}
</style>
<path class="st0" d="M3,5.6L3,5.6c-1.8,0-3-1.2-3-2.8C0,1.2,1.3,0,3,0c1.8,0,3,1.1,3,2.8C6.1,4.4,4.8,5.6,3,5.6z M5.7,24L5.7,24H0.3
	V7.8h5.4V24L5.7,24z M14.1,24L14.1,24l-5.4,0c0-0.1,0.1-14.7,0-16.2h5.4v2.3l0,0l0,0c0,0,0,0,0,0l0,0h0l0-0.1
	c0.8-1.2,2.1-2.7,4.9-2.7c1.8,0,3.4,0.6,4.4,1.8c1.2,1.3,1.8,3.1,1.8,5.5V24l-5.4,0v-8.7c0-2.4-0.9-3.7-2.7-3.7
	c-1.8,0-2.6,1.5-2.8,2c-0.1,0.3-0.2,0.7-0.2,1.3V24L14.1,24z"/>
</svg>
