<svg class="linkedin-icon" xmlns="http://www.w3.org/2000/svg" width="24" viewBox="0 0 24 21.818">
    <g transform="translate(-1090 -158)">
        <g transform="translate(892 122)">
            <g>
                <g>
                    <g transform="translate(198 36)">
                        <path fill="currentColor" d="M24,21.818H18.7v-7.67c0-2.008-.83-3.378-2.654-3.378a2.677,2.677,0,0,0-2.533,1.816,3.375,3.375,0,0,0-.114,1.211v8.021H8.139S8.207,8.232,8.139,7h5.255V9.323c.31-1.017,1.99-2.469,4.669-2.469C21.388,6.854,24,8.986,24,13.577v8.241ZM2.825,5.143H2.791A2.586,2.586,0,0,1,0,2.573,2.612,2.612,0,0,1,2.857,0,2.6,2.6,0,0,1,5.678,2.569,2.607,2.607,0,0,1,2.825,5.143ZM.605,7H5.283V21.818H.605V7Z" />
                    </g>
                </g>
            </g>
        </g>
    </g>
</svg>