<svg xmlns="http://www.w3.org/2000/svg" width="15.983" height="16" viewBox="0 0 15.983 16">
  <path id="Shape" d="M6.473,16a.359.359,0,0,1-.061-.006.3.3,0,0,1-.219-.184,7.912,7.912,0,0,1,.093-5.535L2.446,5.763c-.1.008-.206.012-.31.012A3.25,3.25,0,0,1,.114,5.142a.3.3,0,0,1-.026-.45l4.6-4.6A.311.311,0,0,1,4.915,0h.007a.3.3,0,0,1,.219.112,3.389,3.389,0,0,1,.62,2.363L10.251,6.3a7.55,7.55,0,0,1,2.916-.589,7.066,7.066,0,0,1,2.626.5.3.3,0,0,1,.1.494l-4.384,4.385,4.1,4.1a.3.3,0,0,1-.427.427l-4.1-4.1-4.4,4.4A.3.3,0,0,1,6.473,16ZM2.571,5.143a.3.3,0,0,1,.23.106l4.063,4.775a.3.3,0,0,1,.045.319,7.692,7.692,0,0,0-.31,4.8l4.051-4.052,4.481-4.481a6.464,6.464,0,0,0-1.946-.3,6.885,6.885,0,0,0-2.844.6.305.305,0,0,1-.138.033.3.3,0,0,1-.2-.072L5.243,2.828a.3.3,0,0,1-.1-.279A2.845,2.845,0,0,0,4.85.784L.776,4.858a2.9,2.9,0,0,0,1.361.311,2.863,2.863,0,0,0,.388-.023A.273.273,0,0,1,2.571,5.143Z" transform="translate(0)" fill="#f3516b"/>
</svg>
