<?xml version="1.0" encoding="utf-8"?>
<!-- Generator: Adobe Illustrator 21.0.0, SVG Export Plug-In . SVG Version: 6.00 Build 0)  -->
<svg version="1.1" id="Layer_1" xmlns="http://www.w3.org/2000/svg" xmlns:xlink="http://www.w3.org/1999/xlink" x="0px" y="0px"
	 viewBox="0 0 16 16" style="enable-background:new 0 0 16 16;" xml:space="preserve">
<style type="text/css">
	.st0{fill:#FFFFFF;}
</style>
<g>
	<path id="Shape" class="st0" d="M6.5,16C6.5,16,6.4,16,6.5,16c-0.2,0-0.2-0.1-0.3-0.2C5.6,14,5.6,12,6.3,10.3L2.5,5.8
		c-0.1,0-0.2,0-0.3,0c-0.7,0-1.4-0.2-2-0.6C0,5,0,4.9,0.1,4.7c0,0,0,0,0,0l4.6-4.6C4.8,0,4.8,0,4.9,0h0C5,0,5.1,0,5.1,0.1
		c0.5,0.7,0.7,1.5,0.6,2.4l4.5,3.8c0.9-0.4,1.9-0.6,2.9-0.6c0.9,0,1.8,0.2,2.6,0.5C16,6.3,16,6.4,16,6.6c0,0,0,0.1-0.1,0.1l-4.4,4.4
		l4.1,4.1c0.1,0.1,0.1,0.3,0,0.4s-0.3,0.1-0.4,0l-4.1-4.1l-4.4,4.4C6.6,16,6.6,16,6.5,16z M2.6,5.1c0.1,0,0.2,0,0.2,0.1L6.9,10
		c0.1,0.1,0.1,0.2,0,0.3c-0.6,1.5-0.7,3.2-0.3,4.8l4.1-4.1l4.5-4.5c-0.6-0.2-1.3-0.3-1.9-0.3c-1,0-1.9,0.2-2.8,0.6c0,0-0.1,0-0.1,0
		c-0.1,0-0.1,0-0.2-0.1l-4.8-4C5.2,2.8,5.1,2.7,5.2,2.5c0.1-0.6,0-1.2-0.3-1.8L0.8,4.9c0.4,0.2,0.9,0.3,1.4,0.3
		C2.3,5.2,2.4,5.2,2.6,5.1C2.5,5.1,2.6,5.1,2.6,5.1z"/>
	<polygon class="st0" points="0.4,4.9 5,0.4 5.4,2.5 10.1,6.6 12,6.1 14.9,6.1 15.5,6.6 6.5,15.6 6.1,13.1 6.6,10.7 6.6,9.8 
		2.7,5.4 0.9,5.4 	"/>
</g>
</svg>
