<svg xmlns="http://www.w3.org/2000/svg" width="12.628" height="18" viewBox="0 0 12.628 18">
  <g id="Group_1" data-name="Group 1" transform="translate(-1 -1.814)">
    <path id="Path_Copy_2" data-name="Path Copy 2" d="M16.763-9.418a.73.73,0,0,1,1.025,0,.713.713,0,0,1,0,1.014L9.512-.21a.729.729,0,0,1-1.024,0L.212-8.4a.713.713,0,0,1,0-1.014.73.73,0,0,1,1.025,0L9-1.946Z" transform="translate(4 1.814) rotate(90)" fill="#707070"/>
    <g id="Path_1" data-name="Path 1" transform="translate(1 2)" fill="#eee">
      <path d="M 1.5 17.31396293640137 L 0.5 17.31396293640137 L 0.5 0.5000024437904358 L 1.5 0.5000024437904358 L 1.5 17.31396293640137 Z" stroke="none"/>
      <path d="M 1 1.000001907348633 L 1 16.81396293640137 L 1 1.000001907348633 M 0 1.9073486328125e-06 L 2 1.9073486328125e-06 L 2 17.81396293640137 L 0 17.81396293640137 L 0 1.9073486328125e-06 Z" stroke="none" fill="#707070"/>
    </g>
  </g>
</svg>
