<?xml version="1.0" encoding="utf-8"?>
<!-- Generator: Adobe Illustrator 21.0.0, SVG Export Plug-In . SVG Version: 6.00 Build 0)  -->
<svg version="1.1" id="Layer_1" xmlns="http://www.w3.org/2000/svg" xmlns:xlink="http://www.w3.org/1999/xlink" x="0px" y="0px"
	 viewBox="0 0 18 17.1" style="enable-background:new 0 0 18 17.1;" xml:space="preserve">
<style type="text/css">
	.st0{fill:none;stroke:#373636;stroke-width:2;stroke-linecap:square;stroke-miterlimit:10;}
	.st1{fill:#454545;}
</style>
<line class="st0" x1="140.4" y1="-67.8" x2="140.4" y2="26.3"/>
<path class="st1" d="M13.6,16.7c0,0.2,0.2,0.4,0.5,0.4c0.2,0,0.5-0.2,0.5-0.4V1.5l2.7,2.7c0.1,0.1,0.2,0.1,0.3,0.1s0.2,0,0.3-0.1
	C18,4,18,3.7,17.8,3.6l-3.5-3.4c-0.2-0.2-0.5-0.2-0.6,0l-3.5,3.4c-0.2,0.2-0.2,0.5,0,0.6c0.2,0.2,0.5,0.2,0.6,0l2.7-2.7L13.6,16.7
	L13.6,16.7z"/>
<path class="st1" d="M7.7,12.9c-0.2-0.2-0.5-0.2-0.6,0l-2.7,2.7V0.4C4.4,0.2,4.2,0,3.9,0C3.7,0,3.5,0.2,3.5,0.4v15.1l-2.7-2.7
	c-0.2-0.2-0.5-0.2-0.6,0c-0.2,0.2-0.2,0.5,0,0.6L3.6,17c0.1,0.1,0.2,0.1,0.3,0.1s0.2,0,0.3-0.1l3.5-3.4C7.9,13.4,7.9,13.1,7.7,12.9z
	"/>
</svg>
