<?xml version="1.0" encoding="utf-8"?>
<!-- Generator: Adobe Illustrator 21.0.0, SVG Export Plug-In . SVG Version: 6.00 Build 0)  -->
<svg version="1.1" id="Layer_1" xmlns="http://www.w3.org/2000/svg" xmlns:xlink="http://www.w3.org/1999/xlink" x="0px" y="0px"
	 viewBox="0 0 18 12.3" style="enable-background:new 0 0 18 12.3;" xml:space="preserve">
<style type="text/css">
	.st0{fill:none;stroke:#373636;stroke-width:2;stroke-linecap:square;stroke-miterlimit:10;}
	.st1{fill:#ACABAB;}
</style>
<line class="st0" x1="140.4" y1="-71.8" x2="140.4" y2="22.3"/>
<path class="st1" d="M6.3,4.4H1.9c-0.2,0-0.4-0.2-0.4-0.4c0-0.2,0.2-0.4,0.4-0.4h4.4c0.2,0,0.4,0.2,0.4,0.4C6.7,4.3,6.5,4.4,6.3,4.4
	z M5.6,6.1l-4.4,0C1,6.1,0.9,6.1,0.9,6C0.8,5.9,0.8,5.8,0.8,5.7c0-0.2,0.2-0.4,0.4-0.4l4.4,0c0.1,0,0.2,0,0.3,0.1
	c0.1,0.1,0.1,0.2,0.1,0.3C5.9,6,5.8,6.1,5.6,6.1z M4.8,7.8H0.4C0.2,7.8,0,7.6,0,7.4c0-0.2,0.2-0.4,0.4-0.4h4.4
	c0.2,0,0.4,0.2,0.4,0.4C5.2,7.6,5,7.8,4.8,7.8z M3.3,10.1H2.2C2,10.1,1.9,10,1.9,9.8V8.4c0-0.2,0.2-0.4,0.4-0.4
	c0.2,0,0.4,0.2,0.4,0.4v1h0.7c0.2,0,0.4,0.2,0.4,0.4C3.7,10,3.5,10.1,3.3,10.1z M12.7,10.1H8.2C8,10.1,7.8,10,7.8,9.8
	c0-0.2,0.2-0.4,0.4-0.4h3V0.7H2.6V3c0,0.2-0.2,0.4-0.4,0.4C2,3.4,1.9,3.3,1.9,3V0.4C1.9,0.2,2,0,2.2,0h9.3c0.2,0,0.4,0.2,0.4,0.4
	v1.3H15c0.1,0,0.2,0,0.2,0.1l2.6,2.2C17.9,4,18,4.1,18,4.2l0,5.5c0,0.2-0.2,0.4-0.4,0.4h-0.7c-0.2,0-0.4-0.2-0.4-0.4
	c0-0.2,0.2-0.4,0.4-0.4h0.4l0-5l-2.4-2h-2.9v7h0.7c0.2,0,0.4,0.2,0.4,0.4C13,10,12.9,10.1,12.7,10.1z M5.8,9.7
	c-0.5,0-0.9,0.4-0.9,0.9c0,0.5,0.4,0.9,0.9,0.9c0.5,0,0.9-0.4,0.9-0.9C6.7,10.1,6.3,9.7,5.8,9.7z M5.8,12.3c-0.4,0-0.9-0.2-1.2-0.5
	c-0.3-0.3-0.5-0.7-0.5-1.2c0-0.4,0.2-0.8,0.5-1.2C4.9,9.1,5.3,9,5.8,9c0.9,0,1.6,0.7,1.6,1.6C7.4,11.5,6.7,12.3,5.8,12.3z M14.7,9.7
	c-0.5,0-0.9,0.4-0.9,0.9c0,0.5,0.4,0.9,0.9,0.9c0.5,0,0.9-0.4,0.9-0.9C15.6,10.1,15.2,9.7,14.7,9.7z M14.7,12.3
	c-0.4,0-0.9-0.2-1.2-0.5C13.2,11.5,13,11,13,10.6c0-0.4,0.2-0.8,0.5-1.2C13.9,9.1,14.3,9,14.7,9c0.9,0,1.6,0.7,1.6,1.6
	C16.3,11.5,15.6,12.3,14.7,12.3z"/>
</svg>
