<?xml version="1.0" encoding="UTF-8"?>
<svg width="38px" height="33px" viewBox="0 0 38 33" version="1.1" xmlns="http://www.w3.org/2000/svg" xmlns:xlink="http://www.w3.org/1999/xlink">
    <!-- Generator: sketchtool 61.2 (101010) - https://sketch.com -->
    <title>F14F684A-3FE1-41B3-8AA0-A2F7F79C2AAC</title>
    <desc>Created with sketchtool.</desc>
    <g id="Project-Architect" stroke="none" stroke-width="1" fill="none" fill-rule="evenodd">
        <g id="Project--Architect---error--uploaded---Desktop-HD" transform="translate(-262.000000, -472.000000)" fill="#444444" fill-rule="nonzero">
            <g id="images-upload-uploaded" transform="translate(79.000000, 407.000000)">
                <g id="first-copy">
                    <g id="Group" transform="translate(183.000000, 65.000000)">
                        <path d="M35.9622857,3 L36,3 L36,31 L3,31 L3,3 L35.9622857,3 Z M35.644,0 L2.394,0 C1.73533004,0 1.17166901,0.232303613 0.703,0.696917808 C0.23433099,1.161532 0,1.72031637 0,2.37328767 L0,30.6267123 C0,31.2796836 0.23433099,31.838468 0.703,32.3030822 C1.17166901,32.7676964 1.73533004,33 2.394,33 L35.644,33 C36.2773365,33 36.828331,32.7676964 37.297,32.3030822 C37.765669,31.838468 38,31.2796836 38,30.6267123 L38,2.37328767 C38,1.72031637 37.765669,1.161532 37.297,0.696917808 C36.828331,0.232303613 36.2773365,0 35.644,0 L35.644,0 Z M31,8.5 C31,7.53191005 30.6586914,6.7065637 29.9760638,6.02393617 C29.2934363,5.34130864 28.4680899,5 27.5,5 C26.5319101,5 25.7065637,5.34130864 25.0239362,6.02393617 C24.3413086,6.7065637 24,7.53191005 24,8.5 C24,9.46808995 24.3413086,10.2934363 25.0239362,10.9760638 C25.7065637,11.6586914 26.5319101,12 27.5,12 C28.4680899,12 29.2934363,11.6586914 29.9760638,10.9760638 C30.6586914,10.2934363 31,9.46808995 31,8.5 L31,8.5 Z M34,14.75 L25.532,21.894 L23.1346667,21.894 L13.468,10 L5,24.25 L5,29 L34,29 L34,14.75 Z" id="Shape"></path>
                    </g>
                </g>
            </g>
        </g>
    </g>
</svg>