<svg xmlns="http://www.w3.org/2000/svg" width="24" height="24" viewBox="0 0 24 24">
  <g id="we_color" transform="translate(-0.5)">
    <g id="Group_2" data-name="Group 2">
      <path id="Fill_1" data-name="Fill 1" d="M12,24A12,12,0,0,1,3.514,3.515,12,12,0,1,1,20.485,20.485,11.923,11.923,0,0,1,12,24ZM12,.687A11.313,11.313,0,1,0,23.314,12,11.355,11.355,0,0,0,12,.687Z" transform="translate(0.5)" fill="#7dbba5"/>
      <path id="Fill_2" data-name="Fill 2" d="M19.636,9.818A9.818,9.818,0,1,1,9.818,0a9.818,9.818,0,0,1,9.818,9.818" transform="translate(2.5 2.182)" fill="#7dbba5"/>
      <path id="Fill_3" data-name="Fill 3" d="M2.727,12A2.9,2.9,0,0,1,0,8.963c.006-2.5,1.809-7,2.584-8.822C2.634.015,2.69,0,2.727,0s.1.018.144.141l.011.026C3.653,1.99,5.447,6.5,5.455,8.963A2.9,2.9,0,0,1,2.727,12ZM3.955,7.952a.345.345,0,0,0-.327.331.362.362,0,0,0,.3.4l.034,0a.346.346,0,0,0,.329-.331.36.36,0,0,0-.3-.4ZM3.279,3.661a.02.02,0,0,0-.015.008A19.227,19.227,0,0,0,3.474,6.93c.04.276.168.374.274.374a.216.216,0,0,0,.165-.086A.608.608,0,0,0,4,6.722C3.939,6.4,3.522,4.47,3.4,3.886L3.39,3.859C3.343,3.726,3.306,3.661,3.279,3.661Z" transform="translate(9.5 5.455)" fill="#fffffe"/>
    </g>
  </g>
</svg>
