<svg width="24" height="24" viewBox="0 0 24 24" fill="none" xmlns="http://www.w3.org/2000/svg">
<g clip-path="url(#clip0)">
<path d="M22.5089 3.84375H13.5089C13.1361 3.84375 12.8339 4.15856 12.8339 4.54688V11.3438H0.818921C0.446141 11.3438 0.143921 11.6586 0.143921 12.0469V23.2969C0.143921 23.6852 0.446141 24 0.818921 24H22.5089C22.8817 24 23.1839 23.6852 23.1839 23.2969V4.54688C23.1839 4.15856 22.8817 3.84375 22.5089 3.84375ZM13.6708 4.779H22.3205V11.3438H13.6708V4.779ZM1.05233 12.279H12.8339V14.1562H1.05233V12.279ZM1.05233 15.0915H9.72053V23.0657H1.05233V15.0915ZM10.5839 15.0915H12.8339V23.0657H10.5839V15.0915ZM13.6708 23.0657V12.279H22.3205V23.0657H13.6708Z" fill="black"/>
<path d="M0.818921 9.375H10.7189C11.0917 9.375 11.3939 9.06019 11.3939 8.67188V6.79688C11.3939 6.59161 11.3078 6.39661 11.1582 6.26302L8.24392 3.66098V0.703125C8.24392 0.314812 7.9417 0 7.56892 0H3.96892C3.59614 0 3.29392 0.314812 3.29392 0.703125V3.66098L0.379631 6.26302C0.230051 6.39661 0.143921 6.59161 0.143921 6.79688V8.67188C0.143921 9.06019 0.446141 9.375 0.818921 9.375ZM4.0543 0.678164H7.46332V3.47661H4.0543V0.678164ZM0.899683 6.73299L3.79966 4.08741L7.72985 4.13806L10.7197 6.73299V8.71734H0.899683V6.73299Z" fill="black"/>
<path d="M15.9761 7.9541C15.7319 7.9541 15.5339 8.17611 15.5339 8.44994V9.44163C15.5339 9.71547 15.7319 9.93747 15.9761 9.93747C16.2204 9.93747 16.4183 9.71547 16.4183 9.44163V8.44994C16.4183 8.17611 16.2204 7.9541 15.9761 7.9541Z" fill="black"/>
<path d="M15.9761 14.4668C15.7319 14.4668 15.5339 14.6888 15.5339 14.9626V15.9543C15.5339 16.2282 15.7319 16.4502 15.9761 16.4502C16.2204 16.4502 16.4183 16.2282 16.4183 15.9543V14.9626C16.4183 14.6888 16.2204 14.4668 15.9761 14.4668Z" fill="black"/>
<path d="M7.93696 16.4502C7.69274 16.4502 7.49475 16.6722 7.49475 16.946V17.9377C7.49475 18.2116 7.69274 18.4336 7.93696 18.4336C8.18117 18.4336 8.37917 18.2116 8.37917 17.9377V16.946C8.37917 16.6722 8.18117 16.4502 7.93696 16.4502Z" fill="black"/>
</g>
<defs>
<clipPath id="clip0">
<rect width="23.04" height="24" fill="white" transform="translate(0.143921)"/>
</clipPath>
</defs>
</svg>
