<svg width="24" height="24" viewBox="0 0 24 24" fill="none" xmlns="http://www.w3.org/2000/svg">
<path d="M23.9893 0.568611C23.9867 0.540674 23.9812 0.513064 23.9727 0.486299C23.9619 0.460236 23.9484 0.435393 23.9323 0.412283C23.9248 0.39583 23.916 0.379939 23.9063 0.364705C23.9025 0.360205 23.897 0.358471 23.8931 0.354158C23.8731 0.33433 23.851 0.316658 23.8273 0.301518C23.8088 0.286471 23.789 0.273158 23.7682 0.261721C23.7461 0.253143 23.7232 0.246533 23.6999 0.24208C23.673 0.233549 23.6453 0.227971 23.6173 0.225393C23.6113 0.225111 23.6062 0.221924 23.6001 0.221924C23.5817 0.224221 23.5636 0.227877 23.5459 0.232846C23.5183 0.235377 23.491 0.240861 23.4646 0.249252C23.4385 0.259986 23.4137 0.273486 23.3906 0.289564C23.374 0.297111 23.358 0.305877 23.3426 0.315721L0.248063 19.6937L0.14025 19.7857C0.136031 19.7892 0.134484 19.7944 0.1305 19.7981C0.110859 19.8183 0.0934688 19.8405 0.0785625 19.8644C0.0635157 19.8829 0.0502032 19.9026 0.0387188 19.9235C0.0306094 19.9452 0.024375 19.9676 0.0201094 19.9905C0.0113907 20.0178 0.00571879 20.0461 0.00314066 20.0747C0.00281254 20.0801 3.90641e-08 20.0846 3.90641e-08 20.09V23.598C-4.68359e-05 23.7041 0.0420938 23.8058 0.117141 23.8809C0.192141 23.9559 0.293906 23.998 0.400031 23.998H23.6C23.7061 23.9981 23.8079 23.9559 23.8829 23.8809C23.9579 23.8059 24 23.7041 24 23.598V0.622002C23.9977 0.603955 23.9941 0.586143 23.9893 0.568611ZM23.2 23.198H0.800016V21.998H23.2V23.198H23.2ZM23.2 21.198H2.81466L3.76809 20.398H23.2V21.198H23.2ZM4.72139 19.598L11.6 13.8258V19.598H4.72139ZM12.4 19.598V13.1545L12.989 12.6603L13.2 12.8714V19.598H12.4ZM21.6 19.0076V19.598H21.0578L13.604 12.1442L14.2199 11.6275L21.6 19.0076ZM14.835 11.1113L21.6 5.43447V17.8763L14.835 11.1113ZM19.9266 19.598H14V13.6714L19.9266 19.598ZM23.2 19.598H22.4V4.76313L23.2 4.09183V19.598ZM23.2 3.04731L11.719 12.6818L11.7166 12.6838L3.34064 19.7127L3.33609 19.7165L1.57073 21.198H0.800016V20.2766L23.2 1.47991V3.04731Z" fill="#151515"/>
</svg>
