<svg width="24" height="24" viewBox="0 0 24 24" fill="none" xmlns="http://www.w3.org/2000/svg">
<path d="M23.11 21.9948H19.9668V2.08774C19.9668 1.98851 19.9302 1.89276 19.8641 1.81878C19.7979 1.74481 19.7068 1.6978 19.6082 1.68674L8.99485 0.488808C8.93836 0.482442 8.88117 0.488072 8.82702 0.505332C8.77286 0.522592 8.72296 0.551091 8.68058 0.588965C8.63819 0.62684 8.60429 0.673236 8.58107 0.725118C8.55785 0.777 8.54585 0.8332 8.54585 0.89004V1.68397H3.95072C3.84363 1.68397 3.74093 1.72651 3.66521 1.80223C3.58949 1.87795 3.54695 1.98065 3.54695 2.08774V21.9948H0.40377C0.296684 21.9948 0.193983 22.0373 0.118262 22.113C0.0425401 22.1887 0 22.2914 0 22.3985C0 22.5056 0.0425401 22.6083 0.118262 22.684C0.193983 22.7598 0.296684 22.8023 0.40377 22.8023H8.54585V23.5962C8.54585 23.7033 8.58839 23.806 8.66411 23.8817C8.73984 23.9575 8.84254 24 8.94962 24C8.96504 24.0001 8.98045 23.9993 8.99577 23.9975L19.5861 22.8023H23.1106C23.2177 22.8023 23.3204 22.7598 23.3962 22.684C23.4719 22.6083 23.5144 22.5056 23.5144 22.3985C23.5144 22.2914 23.4719 22.1887 23.3962 22.113C23.3204 22.0373 23.2177 21.9948 23.1106 21.9948H23.11ZM4.35449 2.49151H8.54585V3.52977H5.79629C5.68921 3.52977 5.58651 3.57231 5.51079 3.64803C5.43506 3.72376 5.39252 3.82646 5.39252 3.93354V21.9948H4.35426L4.35449 2.49151ZM6.20029 21.9948V4.33731H8.54585V21.9948H6.20029ZM9.35339 1.3418L19.1592 2.44928V22.0379L9.35339 23.1454V1.3418Z" fill="#151515"/>
</svg>
