<svg width="22" height="24" viewBox="0 0 22 24" fill="none" xmlns="http://www.w3.org/2000/svg">
<path d="M0.469275 3.47814V2.68616H3.59892L1.08608 0.731539L1.62354 0L4.02158 1.91844V0.554776H8.28435V2.71756C10.9077 2.89455 14.109 4.08277 15.9647 6.24051C18.0179 8.25569 18.5122 10.1725 18.5122 12.6326V13.3431H20.1633L21.0159 21.8686H15.183L16.0356 13.3431H17.6377V12.6326C18.2384 7.74608 12.7071 3.54353 8.2844 3.69301V6.00847C9.96312 6.80811 11.1262 8.52127 11.1262 10.5012V11.2116V18.3163V24H1.17978V10.5012C1.17978 8.52123 2.3429 6.80807 4.02163 6.00847V3.47814H0.469275ZM16.2308 20.9932H20.0331L19.4647 14.2632H16.7992L16.2308 20.9932ZM10.3388 12.6326H7.57389V16.8954H10.3388V12.6326ZM6.71563 17.7176V11.7569H10.3583C10.3411 10.7892 10.3148 10.2449 10.1635 9.26352L2.22844 9.24404C2.12117 10.0376 2.01382 10.5477 2.01376 11.6991L1.96265 20.5567H10.3583V17.7176H6.71563ZM10.3658 23.2996V21.1582H1.9583V23.2996H10.3658ZM2.74183 8.36985H9.63754C9.22847 7.3935 7.98179 6.41953 6.18968 6.38057C4.45601 6.38057 3.18985 7.35454 2.74183 8.36985ZM6.15297 5.528C6.39419 5.528 7.20428 5.64597 7.43637 5.67931V1.42413H4.92352V5.67931C5.15565 5.64597 5.91174 5.528 6.15297 5.528Z" fill="#151515"/>
</svg>
