<svg width="24" height="24" viewBox="0 0 24 24" fill="none" xmlns="http://www.w3.org/2000/svg">
<path d="M23.5732 24H0.42677C0.191022 24 0 23.809 0 23.5732V0.42677C0 0.191022 0.191022 0 0.42677 0H23.5732C23.809 0 24 0.191022 24 0.42677V23.5732C24 23.809 23.809 24 23.5732 24ZM17.9445 23.1465H23.1465V17.9445L18.3212 22.7697C18.3205 22.7704 18.3199 22.7712 18.319 22.7719C18.3183 22.7726 18.3175 22.7735 18.3168 22.7741L17.9445 23.1465ZM11.3012 23.1465H16.7376L17.4139 22.4701L14.6957 19.7519L11.3012 23.1465ZM5.09888 23.1465H10.0941L17.5134 15.7272L15.0158 13.2295L7.13781 21.1075L5.09888 23.1465ZM0.85354 23.1465H3.8918L6.23255 20.8057L3.61013 18.1833L0.85354 20.9399V23.1465ZM15.2992 19.1483L18.0174 21.8665L23.1465 16.7374V11.3012L18.4187 16.029L15.2992 19.1483ZM4.21375 17.5797L6.836 20.2021L19.9247 7.1134L17.3023 4.49098L12.171 9.62247C12.1705 9.62281 12.1701 9.62315 12.1698 9.62349L4.21375 17.5797ZM0.85354 13.9996V19.7326L3.30388 17.2821C3.30542 17.2808 3.30678 17.2792 3.30815 17.2779C3.30951 17.2763 3.31105 17.275 3.31242 17.2736L11.2643 9.32151L8.45772 6.5149L0.85354 13.9996ZM15.6193 12.6259L18.1169 15.1235L23.134 10.1066C23.1381 10.1025 23.1424 10.0984 23.1465 10.0945V5.0987L15.6193 12.6259ZM0.85354 7.03453V12.8019L4.23322 9.47532L1.33716 6.57908L0.85354 7.03453ZM1.9587 5.99356L4.84162 8.87647L12.9639 0.881877H7.38568L1.9587 5.99356ZM9.06596 5.91605L11.868 8.71805L19.7326 0.85354H14.2094L9.06596 5.91605ZM17.9057 3.88753L20.5281 6.50995L23.1465 3.89163V0.85354H20.9397L17.9057 3.88753ZM0.85354 0.85354V5.86211L1.01315 5.71189C1.0222 5.70096 1.03159 5.69055 1.04183 5.68031C1.05822 5.66392 1.07563 5.64907 1.0939 5.63592L6.17075 0.85354H0.85354Z" fill="#151515"/>
</svg>
