<svg width="25" height="25" viewBox="0 0 25 25" fill="none" xmlns="http://www.w3.org/2000/svg">
<path d="M24.2285 9.76941C24.0083 8.8695 23.249 8.13661 22.3392 7.94616C22.1536 7.9073 21.9668 7.88995 21.7821 7.89183C21.0078 5.35229 17.7226 0.985185 12.3035 0.890015C6.89608 0.880587 3.60527 5.23717 2.81083 7.90251C2.21758 7.90294 1.63942 8.09784 1.18366 8.48522C0.624062 8.96133 0.302734 9.65564 0.302734 10.39C0.302734 11.1718 0.679703 11.91 1.30281 12.3798V19.89C1.30281 20.993 2.19986 21.89 3.30292 21.89V23.39C3.30292 24.2172 3.97581 24.89 4.80302 24.89C5.63022 24.89 6.30311 24.2172 6.30311 23.39V21.89H18.3039V23.39C18.3039 24.2172 18.9767 24.89 19.804 24.89C20.6312 24.89 21.304 24.2172 21.304 23.39V21.89C22.4072 21.89 23.3042 20.9931 23.3042 19.89V12.3802C24.1035 11.7807 24.4722 10.767 24.2285 9.76941ZM12.3027 1.89005C17.2054 1.94112 19.97 6.03722 20.7285 8.13637C20.5516 8.22047 20.3826 8.32284 20.2276 8.44861C19.6397 8.92617 19.3028 9.63365 19.3028 10.39V14.89C14.6361 14.89 9.96945 14.89 5.3028 14.89V10.497C5.3028 9.46987 4.71517 8.56069 3.86627 8.14214C4.51208 5.93152 7.2648 1.82429 12.3027 1.89005ZM20.3279 16.39C20.3279 16.6659 20.1038 16.89 19.8279 16.89H4.80273C4.52688 16.89 4.30272 16.6659 4.30272 16.39C4.30272 16.1141 4.52688 15.89 4.80273 15.89H19.828C20.1038 15.89 20.3279 16.1142 20.3279 16.39ZM5.30275 23.39C5.30275 23.6659 5.07864 23.8901 4.80273 23.8901C4.52683 23.8901 4.30272 23.666 4.30272 23.39V21.89H5.3027L5.30275 23.39ZM20.3027 23.39C20.3027 23.6659 20.0786 23.8901 19.8027 23.8901C19.5269 23.8901 19.3027 23.666 19.3027 23.39V21.89H20.3027L20.3027 23.39ZM22.5513 11.6805C22.3975 11.7699 22.3027 11.9345 22.3027 12.1127V19.89C22.3027 20.4413 21.854 20.89 21.3027 20.89H3.30273C2.75148 20.89 2.30275 20.4413 2.30275 19.89V12.1127C2.30275 11.9349 2.20802 11.7704 2.05422 11.6805C1.5835 11.4067 1.30272 10.9242 1.30272 10.39C1.30272 9.94959 1.49561 9.53259 1.83152 9.24698C2.17281 8.95692 2.61081 8.83781 3.05809 8.91103C3.76755 9.02625 4.30272 9.70837 4.30272 10.497V14.9821C3.72198 15.1892 3.30273 15.739 3.30273 16.39C3.30273 17.2172 3.97558 17.89 4.80273 17.89C9.80273 17.89 14.8027 17.89 19.8027 17.89C20.6299 17.89 21.3027 17.2172 21.3027 16.39C21.3027 15.739 20.8835 15.1892 20.3027 14.9821V10.39C20.3027 9.9359 20.5049 9.51159 20.8579 9.225C21.2158 8.93447 21.67 8.82755 22.1328 8.92472C22.6739 9.03801 23.125 9.47306 23.2554 10.0067C23.4199 10.6791 23.1436 11.3358 22.5513 11.6805Z" fill="#151515"/>
</svg>
