<svg width="24" height="26" viewBox="0 0 24 26" fill="none" xmlns="http://www.w3.org/2000/svg">
<g id="item">
<path id="Path" fill-rule="evenodd" clip-rule="evenodd" d="M1.46118 6.47556C1.46118 6.33527 1.52012 6.20143 1.62361 6.10671L6.72804 1.43508C6.91621 1.26286 7.20386 1.25991 7.39553 1.42823L12.1301 5.58596C12.3193 5.7521 12.6025 5.75165 12.7911 5.58491L17.4931 1.42907C17.6841 1.26024 17.9716 1.26215 18.1603 1.43351L23.3075 6.10656C23.4119 6.20133 23.4714 6.33576 23.4714 6.47675V15.9342C23.4714 16.0846 23.4037 16.227 23.287 16.322L12.7768 24.8755C12.593 25.0251 12.3293 25.0251 12.1454 24.8753L1.64539 16.322C1.52883 16.227 1.46118 16.0846 1.46118 15.9343V6.47556Z" stroke="#151515"/>
<path id="Line" d="M23.1141 6.48718L12.935 15.3855C12.7492 15.5479 12.4728 15.5505 12.284 15.3916L1.70459 6.48941" stroke="#151515" stroke-linecap="square"/>
</g>
</svg>
