<svg width="23" height="24" viewBox="0 0 23 24" fill="none" xmlns="http://www.w3.org/2000/svg">
<path d="M3.9843 13.5625C1.96285 15.5881 0.813378 18.3237 0.781311 21.1852C0.780264 21.2535 0.792792 21.3213 0.818171 21.3848C0.843549 21.4482 0.881272 21.506 0.92915 21.5547C0.977028 21.6035 1.03411 21.6422 1.09708 21.6687C1.16005 21.6952 1.22766 21.709 1.29598 21.7091H8.97089C9.14098 22.9954 10.2288 23.9909 11.542 23.9909C12.8552 23.9909 13.943 22.9954 14.1131 21.7091H21.7879C21.8563 21.709 21.9239 21.6952 21.9869 21.6687C22.0499 21.6422 22.107 21.6034 22.1549 21.5546C22.2028 21.5058 22.2405 21.448 22.2659 21.3845C22.2913 21.321 22.3037 21.2531 22.3026 21.1848C22.2705 18.3234 21.121 15.588 19.0997 13.5625C17.1905 11.6308 14.6132 10.5049 11.8987 10.4169V1.11336H19.7976C19.8922 1.11336 19.9829 1.07578 20.0498 1.00888C20.2298 0.828901 20.2301 0.293892 20.0498 0.113632C19.9829 0.0467368 19.8922 0.00915527 19.7976 0.00915527H3.28637C3.19177 0.00915527 3.10104 0.0467368 3.03414 0.113632C2.80889 0.338884 2.80358 0.778321 3.03414 1.00888C3.10104 1.07578 3.19177 1.11336 3.28637 1.11336H11.1853V10.4169C8.47076 10.5049 5.89342 11.6308 3.9843 13.5625ZM11.542 23.2774C10.6223 23.2774 9.85517 22.6004 9.69269 21.7091H13.3913C13.2288 22.6004 12.4616 23.2774 11.542 23.2774ZM21.5845 20.9957H1.49948C1.57856 18.3897 2.64779 15.9117 4.48952 14.0662C5.41223 13.134 6.51061 12.3939 7.72114 11.8888C8.93166 11.3838 10.2303 11.1237 11.542 11.1237C12.8536 11.1237 14.1523 11.3838 15.3628 11.8888C16.5733 12.3939 17.6717 13.134 18.5944 14.0662C20.4361 15.9117 21.5054 18.3897 21.5845 20.9957Z" fill="#151515"/>
</svg>
