<svg width="25" height="25" viewBox="0 0 25 25" fill="none" xmlns="http://www.w3.org/2000/svg">
<path d="M19.3529 0.390137C16.639 0.390137 14.431 2.59809 14.431 5.31201V6.10889H6.31167L0.27478 12.1458V24.3901H19.3529C22.0668 24.3901 24.2748 22.1822 24.2748 19.4683V5.31201C24.2748 2.59809 22.0668 0.390137 19.3529 0.390137ZM6.29968 7.63474V12.1556H1.724L6.29968 7.63474ZM1.30564 23.3674V13.1401H7.30603L7.34375 7.09538H14.4687L14.431 19.4683C14.431 20.8442 15.1633 22.5405 16.387 23.3674H1.30564ZM19.3529 23.3152C17.4144 23.3152 15.5279 21.6061 15.5279 19.4683C15.5279 17.296 17.1999 15.6983 19.3529 15.6983C21.4727 15.6983 23.2191 17.2589 23.2191 19.4683C23.2191 21.6804 21.2914 23.3152 19.3529 23.3152ZM19.3636 14.7353C17.9876 14.7353 16.1885 15.4298 15.494 16.6204V5.31201C15.494 3.1266 17.4144 1.43987 19.3529 1.43987C21.2914 1.43987 23.2662 2.96124 23.2662 5.31201V16.6866C22.5386 15.4629 20.7395 14.7353 19.3636 14.7353Z" fill="black"/>
</svg>
