<svg width="24" height="24" viewBox="0 0 24 24" fill="none" xmlns="http://www.w3.org/2000/svg">
<g clip-path="url(#clip0)">
<path d="M23.6 0.642698H0.4C0.1791 0.642698 0 0.848512 0 1.10236L0 21.1143C0 21.3682 0.1791 21.574 0.4 21.574H1.6V23.082C1.6 23.3358 1.7791 23.5416 2 23.5416H4.4C4.6209 23.5416 4.8 23.3358 4.8 23.082V21.574H19.2V23.082C19.2 23.3358 19.3791 23.5416 19.6 23.5416H22C22.2209 23.5416 22.4 23.3358 22.4 23.082V21.574H23.6C23.8209 21.574 24 21.3682 24 21.1143L24 1.10236C24 0.848512 23.8209 0.642698 23.6 0.642698ZM4 22.8174H2.4V21.574H4V22.8174ZM21.6 22.8174H20V21.574H21.6V22.8174ZM23.2 20.6546H0.8L0.8 1.56202H23.2L23.2 20.6546Z" fill="#151515"/>
<path d="M4.88003 16.0913C4.90563 16.1077 4.93363 16.1193 4.96003 16.1341C5.00663 16.1604 5.05503 16.1834 5.10483 16.2029C5.13843 16.2161 5.17283 16.2245 5.20763 16.2345C5.25378 16.2476 5.30068 16.2579 5.34803 16.2653C5.38523 16.2709 5.42163 16.2741 5.45923 16.2765C5.48203 16.2765 5.50363 16.2829 5.52643 16.2829C5.57578 16.283 5.62503 16.28 5.67403 16.2741C6.04203 16.2313 6.36933 16.0202 6.56003 15.7025L8.23162 12.9177C8.24402 12.9213 8.25682 12.9225 8.26922 12.9257C8.33232 12.9425 8.39627 12.9558 8.46082 12.9657C8.48402 12.9697 8.50642 12.9753 8.53002 12.9785C8.70997 13.0052 8.89287 13.0052 9.07282 12.9785C9.09602 12.9753 9.11842 12.9697 9.14162 12.9657C9.20617 12.9558 9.27012 12.9425 9.33322 12.9257C9.34522 12.9225 9.35762 12.9213 9.36922 12.9181L11.04 15.7033C11.2303 16.02 11.5564 16.2307 11.9232 16.2741C11.9722 16.28 12.0215 16.283 12.0708 16.2829C12.3886 16.2833 12.6933 16.1568 12.9172 15.9313L13.7292 15.1193C14.1984 14.6512 14.1992 13.8914 13.7311 13.4223C13.6619 13.3529 13.5844 13.2923 13.5004 13.2417L10.716 11.5689C10.7196 11.5565 10.7208 11.5433 10.7244 11.5309C10.7408 11.4709 10.7536 11.4109 10.7644 11.3485C10.7692 11.3217 10.7752 11.2953 10.7792 11.2685C10.792 11.1797 10.7989 11.0902 10.8 11.0005C10.7989 10.8086 10.7703 10.6179 10.7148 10.4341L13.502 8.76053C14.0696 8.41838 14.2523 7.68088 13.9102 7.11328C13.8597 7.02958 13.7992 6.95233 13.73 6.88333L12.918 6.07133C12.4499 5.60218 11.6901 5.60138 11.221 6.06948C11.1516 6.13868 11.091 6.21618 11.0404 6.30013L9.36482 9.08893C8.99517 8.98333 8.60327 8.98333 8.23362 9.08893L6.56003 6.29773C6.21788 5.73013 5.48038 5.54743 4.91278 5.88958C4.82908 5.94003 4.75188 6.00053 4.68283 6.06973L3.87083 6.88173C3.40168 7.34983 3.40088 8.10963 3.86898 8.57878C3.93818 8.64813 4.01568 8.70878 4.09963 8.75933L6.88683 10.4341C6.83088 10.6178 6.80163 10.8085 6.80003 11.0005C6.80058 11.09 6.80703 11.1794 6.81923 11.2681C6.82283 11.2945 6.82923 11.3205 6.83363 11.3481C6.84483 11.4109 6.85763 11.4729 6.87363 11.5341C6.87683 11.5461 6.87803 11.5585 6.88163 11.5705L4.09723 13.2405C3.52963 13.5827 3.34693 14.3202 3.68908 14.8878C3.73953 14.9715 3.80003 15.0487 3.86923 15.1177L4.68123 15.9297C4.74168 15.9904 4.80828 16.0446 4.88003 16.0913ZM13.0888 13.9277C13.2784 14.0437 13.3381 14.2914 13.2222 14.481C13.2059 14.5077 13.1865 14.5323 13.1645 14.5545L13.1641 14.5537L12.3521 15.3657C12.1944 15.5223 11.9396 15.5215 11.783 15.3638C11.7611 15.3418 11.7419 15.3173 11.7257 15.2909L10.0761 12.5397C10.0909 12.5277 10.1025 12.5117 10.1161 12.4997C10.183 12.4413 10.2459 12.3785 10.3045 12.3117C10.3153 12.2993 10.3293 12.2893 10.3397 12.2765L13.0888 13.9277ZM11.724 6.71093C11.7876 6.60548 11.8965 6.53548 12.0188 6.52133C12.1413 6.50508 12.2642 6.54728 12.3508 6.63533L13.1628 7.44733C13.3194 7.60503 13.3185 7.85983 13.1608 8.01643C13.1386 8.03848 13.1139 8.05783 13.0872 8.07413L10.338 9.72533C10.3224 9.70693 10.3028 9.69213 10.2864 9.67413C10.2351 9.61643 10.1805 9.56183 10.1228 9.51053C10.1052 9.49453 10.0908 9.47533 10.0724 9.46013L11.724 6.71093ZM7.73522 10.4489C8.04002 9.86083 8.76372 9.63098 9.35202 9.93532H9.34922C9.56917 10.051 9.74862 10.231 9.86362 10.4513C10.0436 10.7968 10.0436 11.2083 9.86362 11.5537C9.81292 11.6514 9.74857 11.7414 9.67242 11.8209C9.66882 11.8249 9.66522 11.8293 9.66122 11.8333C9.58557 11.91 9.50017 11.9765 9.40722 12.0309C9.39682 12.0373 9.38842 12.0445 9.37762 12.0505C9.37402 12.0505 9.36162 12.0593 9.34922 12.0665C9.09057 12.193 8.79662 12.2277 8.51562 12.1649C8.42357 12.1433 8.33462 12.1103 8.25082 12.0665L8.20002 12.0377C7.64472 11.7179 7.43987 11.0176 7.73522 10.4489ZM4.50963 8.07413C4.40418 8.01053 4.33418 7.90168 4.32003 7.77933C4.30483 7.65703 4.34693 7.53453 4.43403 7.44733L5.24603 6.63533C5.32093 6.56043 5.42248 6.51828 5.52843 6.51813C5.54503 6.51798 5.56158 6.51908 5.57803 6.52133C5.70008 6.53533 5.80878 6.60503 5.87243 6.71013L7.52402 9.46013C7.50562 9.47573 7.49082 9.49533 7.47282 9.51173C7.41512 9.56303 7.36053 9.61763 7.30923 9.67533C7.29323 9.69293 7.27402 9.70733 7.25882 9.72533L4.50963 8.07413ZM4.43598 13.9846C4.45798 13.9628 4.48243 13.9435 4.50883 13.9273L7.25882 12.2757C7.26922 12.2885 7.28323 12.2985 7.29403 12.3113C7.35238 12.3779 7.41508 12.4406 7.48162 12.4989C7.49642 12.5117 7.50802 12.5281 7.52163 12.5389L5.87123 15.2885C5.80763 15.394 5.69873 15.464 5.57643 15.4781C5.45398 15.4948 5.33083 15.4525 5.24443 15.3641L4.43403 14.5537C4.27743 14.396 4.27828 14.1413 4.43598 13.9846Z" fill="#151515"/>
<path d="M8.79995 18.6005C12.9973 18.6005 16.4 15.1979 16.4 11.0005C16.4 6.80316 12.9973 3.40051 8.79995 3.40051C4.6026 3.40051 1.19995 6.80316 1.19995 11.0005C1.2046 15.196 4.6045 18.5959 8.79995 18.6005ZM8.79995 4.20051C12.5555 4.20051 15.6 7.24496 15.6 11.0005C15.6 14.7561 12.5555 17.8005 8.79995 17.8005C5.0444 17.8005 1.99995 14.7561 1.99995 11.0005C2.00415 7.24671 5.04615 4.20471 8.79995 4.20051Z" fill="#151515"/>
</g>
<defs>
<clipPath id="clip0">
<rect width="24" height="23" fill="white" transform="translate(0 0.60968)"/>
</clipPath>
</defs>
</svg>
