<svg width="22" height="25" viewBox="0 0 22 25" fill="none" xmlns="http://www.w3.org/2000/svg">
<path d="M21.9922 12.214C21.9922 11.1547 21.5799 10.1133 20.8564 9.33981C21.2381 8.68745 21.438 7.95071 21.438 7.18646C21.438 4.82832 19.5193 2.90992 17.161 2.90992C16.8193 2.90992 16.482 2.94999 16.1533 3.02949C15.6015 1.58298 14.2156 0.609619 12.6298 0.609619C11.3691 0.609619 10.2187 1.22481 9.51997 2.24434C9.10203 2.02267 8.6322 1.90388 8.15591 1.90388C6.86924 1.90388 5.76645 2.72846 5.38653 3.91848C5.33244 3.91609 5.27844 3.91492 5.22467 3.91492C3.14342 3.91492 1.4502 5.60818 1.4502 7.68943C1.4502 8.09457 1.51583 8.49929 1.6438 8.88367C0.612734 9.67848 0.0078125 10.8969 0.0078125 12.214C0.0078125 14.5346 1.89575 16.4226 4.21639 16.4226C4.34839 16.4226 4.4803 16.4164 4.61141 16.4042C5.04031 17.7609 6.29984 18.7045 7.7608 18.7045C8.21412 18.7045 8.66117 18.6098 9.07288 18.4319V19.5826C9.07288 20.3868 8.56034 21.0977 7.79703 21.3514C6.50989 21.7811 5.4868 22.6795 5.4868 24.1409C5.4868 24.3997 5.69666 24.6096 5.95555 24.6096H17.1746C17.429 24.6096 17.6434 24.3954 17.6434 24.1409C17.6434 22.6858 16.6201 21.7809 15.333 21.3512C14.57 21.0977 14.0573 20.3869 14.0573 19.5826V17.9247C14.6422 18.4182 15.3926 18.7046 16.1893 18.7046C17.758 18.7046 19.0994 17.5997 19.4204 16.0913C20.9686 15.4381 21.9906 13.9158 21.9921 12.2177L21.9922 12.214ZM18.85 15.3062C18.6807 15.3647 18.5594 15.5144 18.5375 15.6921C18.3919 16.875 17.3823 17.767 16.1892 17.767C15.2472 17.767 14.395 17.2089 14.0181 16.3453C13.9308 16.145 13.7066 16.0292 13.4928 16.0738C13.2763 16.119 13.1168 16.3184 13.1197 16.5397V19.5826C13.1197 20.7914 13.8903 21.8597 15.0367 22.2407C15.7863 22.4909 16.4336 22.8498 16.6465 23.6721H6.48383C6.69683 22.8497 7.34863 22.4895 8.09333 22.2409C9.23994 21.8596 10.0103 20.7913 10.0103 19.5826V16.0916C10.0103 14.6795 9.43658 13.2978 8.43603 12.3009L7.67881 11.5469C7.49356 11.3621 7.49581 11.0522 7.68313 10.87C7.87184 10.6864 8.18553 10.7107 8.36675 10.892L10.4837 13.009C11.0417 13.5804 12.0341 13.1491 12.0341 12.3668C12.0341 10.6224 12.5546 8.89192 13.5172 7.4371C13.6691 7.2076 13.9925 7.1326 14.2244 7.28598C14.4588 7.44099 14.5199 7.76059 14.3698 7.99581C13.0342 9.65906 13.0806 14.8256 13.0806 16.3453V16.3628C13.0806 16.6216 13.2905 16.8315 13.5494 16.8315C13.8083 16.8315 14.0181 16.6216 14.0181 16.3628V16.3453C14.0181 15.0047 14.0111 10.2018 15.1601 8.50023C15.5391 7.90726 15.435 7.10368 14.91 6.63409C14.2604 6.0527 13.2145 6.19538 12.7351 6.91988C12.3873 7.44554 12.0888 8.00724 11.8481 8.5891C11.3585 9.77073 11.1058 11.0175 11.0968 12.2962L9.02975 10.2292C8.49172 9.69606 7.57784 9.6646 7.02884 10.1984C6.47183 10.7419 6.46578 11.6612 7.01703 12.211L7.77444 12.9652C8.59963 13.7874 9.07288 14.927 9.07288 16.0917V17.371C8.68513 17.6308 8.23569 17.7671 7.7608 17.7671C6.60294 17.7671 5.6217 16.9399 5.42764 15.8002C5.38391 15.5431 5.12802 15.3674 4.87213 15.4195C4.65823 15.463 4.43759 15.4851 4.21644 15.4851C2.41273 15.4851 0.945359 14.0177 0.945359 12.214C0.945359 11.2581 1.3558 10.369 2.06305 9.75226C2.42769 10.3114 2.94078 10.7692 3.53825 11.0671C3.72388 11.1596 3.95797 11.292 4.17013 11.292C4.36588 11.292 4.5485 11.1683 4.61436 10.9726C4.69691 10.7272 4.56491 10.4613 4.31952 10.3788C3.1768 9.99442 2.38784 8.89487 2.38784 7.68938C2.38784 6.12521 3.66036 4.85265 5.22458 4.85265L5.22786 4.85246C5.37495 4.85265 5.52458 4.86465 5.6727 4.88823C5.92822 4.92896 6.16855 4.75496 6.20942 4.49935C6.36308 3.53865 7.18175 2.84138 8.156 2.84138C8.60619 2.84138 9.03027 2.98956 9.38234 3.26996C9.61175 3.45263 9.96186 3.37529 10.0933 3.11363C10.5784 2.1474 11.5504 1.54712 12.6298 1.54712C13.9477 1.54712 15.0818 2.44126 15.3878 3.72151C15.452 3.99001 15.7457 4.14826 16.0055 4.05254C16.3757 3.91646 16.7645 3.84742 17.161 3.84742C19.0024 3.84742 20.5005 5.34531 20.5005 7.18646C20.5005 7.72576 20.3725 8.24729 20.128 8.71867C19.6724 8.4122 19.1518 8.19118 18.5865 8.08187C18.3325 8.03274 18.0865 8.19901 18.0373 8.45312C17.9882 8.70732 18.1544 8.95318 18.4086 9.00235C19.9258 9.29565 21.0546 10.6701 21.0546 12.214C21.0546 13.6089 20.1686 14.8516 18.85 15.3062Z" fill="#151515"/>
</svg>
