<svg width="25" height="24" viewBox="0 0 25 24" fill="none" xmlns="http://www.w3.org/2000/svg">
<path d="M23.5717 17.2028H23.3273L22.3273 10.5411C22.3273 8.52609 20.9316 7.42978 19.2161 7.42978H14.5543V7.27566C14.5543 6.88734 14.2395 6.57253 13.8512 6.57253H10.6984C10.3101 6.57253 9.99525 6.88734 9.99525 7.27566V7.46574H7.08858V4.55906H7.4422C7.83051 4.55906 8.14533 4.24425 8.14533 3.85594V0.703125C8.14533 0.314813 7.83051 0 7.4422 0H0.977905C0.589593 0 0.27478 0.314813 0.27478 0.703125V3.85594C0.27478 4.24425 0.589593 4.55906 0.977905 4.55906H1.22222V10.2208C1.22222 11.9364 2.61792 13.3321 4.3335 13.3321H9.99525V13.74C9.99525 14.1283 10.3101 14.4431 10.6984 14.4431H13.8512C14.2395 14.4431 14.5543 14.1283 14.5543 13.74V13.2961H16.461L15.461 17.2028H15.1074C14.719 17.2028 14.4042 17.5176 14.4042 17.9059L14.9042 20.5443L15.4042 23.0588C15.4042 23.4471 15.719 23.7619 16.1074 23.7619H19.3395H22.5717C22.96 23.7619 23.2748 23.4471 23.2748 23.0588L23.7748 20.5443L24.2748 17.9059C24.2748 17.5176 23.96 17.2028 23.5717 17.2028ZM1.11792 0.704986H7.2924V3.83452H1.11792V0.704986ZM4.3335 12.6029C2.92233 12.6029 1.96374 11.6443 1.96374 10.2208V4.55906H6.3234V7.44335C6.3234 7.83166 6.65034 8.1764 7.03865 8.1764H9.99525V12.6029H4.3335ZM13.8052 13.7024H10.7321L10.7645 7.33058H13.8377L13.8052 13.7024ZM16.4986 12.5747H14.5543V8.1482H19.2161C20.7559 8.1482 21.6581 9.16319 21.6581 10.5411L22.6581 17.2028H19.4167H16.1753L17.1753 13.2513C17.1753 12.863 16.8869 12.5747 16.4986 12.5747ZM21.3961 18.2065L22.1586 23.1025H21.7568H20.9533H19.3462H17.7392L16.5439 23.0989L17.3972 18.2053H16.7388L15.9341 22.5637L15.6321 20.5715L15.1321 17.9165H19.3462H23.5603L23.0603 20.5715L22.8103 21.837L22.6853 22.4697L22.0169 18.2053L21.3961 18.2065Z" fill="#151515"/>
</svg>
