<svg width="25" height="25" viewBox="0 0 25 25" fill="none" xmlns="http://www.w3.org/2000/svg">
<g clip-path="url(#clip0)">
<path d="M4.17245 17.6079L23.8843 9.50879L23.8843 22.7511L1.67897 22.7511L1.65747 11.0046C1.65747 11.0046 1.67453 9.81398 3.11354 9.81398C4.55256 9.81398 4.59616 11.0046 4.59616 11.0046" stroke="black"/>
<path d="M6.87774 22.9382L6.87768 9.00456C6.87768 9.00456 6.89474 7.81393 8.33376 7.81393C9.77277 7.81393 9.81638 9.00456 9.81638 9.00456" stroke="black"/>
<path d="M12.3809 22.9382L12.3809 7.00456C12.3809 7.00456 12.3979 5.81393 13.8369 5.81393C15.2759 5.81393 15.3196 7.00456 15.3196 7.00456" stroke="black"/>
<path d="M17.6006 22.9382L17.6006 5.00456C17.6006 5.00456 17.6176 3.81393 19.0567 3.81393C20.4957 3.81393 20.5393 5.00456 20.5393 5.00456" stroke="black"/>
</g>
<defs>
<clipPath id="clip0">
<rect width="24" height="24" fill="white" transform="translate(0.349243 0.109619)"/>
</clipPath>
</defs>
</svg>
