<svg width="24" height="22" viewBox="0 0 24 22" fill="none" xmlns="http://www.w3.org/2000/svg">
<path d="M23.5663 0.469849H0.433734C0.194203 0.469849 0 0.664005 0 0.903583V18.7831C0 20.2978 1.23234 21.5301 2.74697 21.5301C3.71752 21.5301 4.57144 21.0237 5.0602 20.2617C5.54902 21.0237 6.40294 21.5301 7.37344 21.5301C8.34394 21.5301 9.19791 21.0237 9.68667 20.2617C10.1754 21.0237 11.0294 21.5301 11.9999 21.5301C12.9704 21.5301 13.8244 21.0237 14.3131 20.2617C14.8019 21.0237 15.6559 21.5301 16.6264 21.5301C17.5969 21.5301 18.4509 21.0237 18.9396 20.2617C19.4283 21.0237 20.2823 21.5301 21.2528 21.5301C22.7675 21.5301 23.9998 20.2977 23.9998 18.7831V0.903583C24 0.664005 23.8058 0.469849 23.5663 0.469849ZM17.0602 1.33732H20.8193V3.63852C20.8193 4.67493 19.9762 5.51802 18.9398 5.51802C17.9034 5.51802 17.0603 4.67488 17.0603 3.63852L17.0602 1.33732ZM16.6265 5.11714C17.0409 5.76322 17.7179 6.22532 18.506 6.35089V8.68669C18.506 9.7231 17.6629 10.5662 16.6265 10.5662C15.5902 10.5662 14.747 9.72305 14.747 8.68669V6.35089C15.5352 6.22532 16.2121 5.76327 16.6265 5.11714ZM12.4337 1.33732H16.1928V3.63852C16.1928 4.67493 15.3496 5.51802 14.3133 5.51802C13.2769 5.51802 12.4338 4.67488 12.4338 3.63852L12.4337 1.33732ZM12 5.11714C12.4144 5.76322 13.0913 6.22532 13.8795 6.35089V8.68669C13.8795 9.7231 13.0364 10.5662 12 10.5662C10.9636 10.5662 10.1205 9.72305 10.1205 8.68669V6.35089C10.9086 6.22532 11.5855 5.76327 12 5.11714ZM7.80722 1.33732H11.5663V3.63852C11.5663 4.67493 10.7231 5.51802 9.68677 5.51802C8.65041 5.51802 7.80727 4.67488 7.80727 3.63852L7.80722 1.33732ZM7.37348 5.11714C7.78795 5.76322 8.46488 6.22532 9.25299 6.35089V8.68669C9.25299 9.7231 8.4098 10.5662 7.37348 10.5662C6.33717 10.5662 5.49398 9.72305 5.49398 8.68669V6.35089C6.28209 6.22532 6.95906 5.76327 7.37348 5.11714ZM3.1807 1.33732H6.93975V3.63852C6.93975 4.67493 6.09656 5.51802 5.06025 5.51802C4.02389 5.51802 3.18075 4.67488 3.18075 3.63852L3.1807 1.33732ZM0.867469 1.33732H2.31323V3.63852C2.31323 4.52563 1.69533 5.27057 0.867469 5.46697V1.33732ZM0.867469 6.35094C1.65558 6.22532 2.3325 5.76327 2.74697 5.11719C3.16144 5.76327 3.83836 6.22536 4.62647 6.35094V8.68674C4.62647 9.72315 3.78328 10.5662 2.74697 10.5662C1.71066 10.5662 0.867469 9.7231 0.867469 8.68674V6.35094ZM0.867469 10.6873C1.25934 11.0557 1.7587 11.3108 2.31323 11.3991V13.7349C2.31323 14.6221 1.69533 15.367 0.867469 15.5634V10.6873ZM4.62652 18.7831C4.62652 19.8195 3.78333 20.6626 2.74702 20.6626C1.7107 20.6626 0.867516 19.8194 0.867516 18.7831V16.4473C1.65562 16.3217 2.33255 15.8596 2.74702 15.2135C3.16148 15.8596 3.83841 16.3217 4.62652 16.4472V18.7831ZM5.06025 15.6144C4.02389 15.6144 3.18075 14.7713 3.18075 13.7349V11.3991C3.96886 11.2735 4.64583 10.8114 5.06025 10.1654C5.47467 10.8114 6.15164 11.2735 6.93975 11.3991V13.7349C6.93975 14.7713 6.09656 15.6144 5.06025 15.6144ZM9.25303 18.7831C9.25303 19.8195 8.40984 20.6626 7.37353 20.6626C6.33722 20.6626 5.49403 19.8194 5.49403 18.7831V16.4473C6.28214 16.3217 6.95911 15.8596 7.37353 15.2135C7.788 15.8596 8.46492 16.3217 9.25303 16.4472V18.7831ZM9.68677 15.6144C8.65041 15.6144 7.80727 14.7713 7.80727 13.7349V11.3991C8.59538 11.2735 9.2723 10.8114 9.68677 10.1654C10.1012 10.8114 10.7782 11.2735 11.5663 11.3991V13.7349C11.5663 14.7713 10.7231 15.6144 9.68677 15.6144ZM13.8795 18.7831C13.8795 19.8195 13.0364 20.6626 12 20.6626C10.9636 20.6626 10.1205 19.8194 10.1205 18.7831V16.4473C10.9086 16.3217 11.5855 15.8596 12 15.2135C12.4144 15.8596 13.0913 16.3217 13.8795 16.4472V18.7831ZM14.3132 15.6144C13.2768 15.6144 12.4337 14.7713 12.4337 13.7349V11.3991C13.2219 11.2735 13.8988 10.8114 14.3132 10.1654C14.7277 10.8114 15.4046 11.2735 16.1927 11.3991V13.7349C16.1928 14.7713 15.3496 15.6144 14.3132 15.6144ZM18.506 18.7831C18.506 19.8195 17.6629 20.6626 16.6265 20.6626C15.5902 20.6626 14.747 19.8194 14.747 18.7831V16.4473C15.5352 16.3217 16.2121 15.8596 16.6265 15.2135C17.0409 15.8596 17.7179 16.3217 18.506 16.4472V18.7831ZM18.9398 15.6144C17.9033 15.6144 17.0602 14.7713 17.0602 13.7349V11.3991C17.8485 11.2735 18.5253 10.8114 18.9398 10.1654C19.3542 10.8114 20.0311 11.2735 20.8193 11.3991V13.7349C20.8193 14.7713 19.9762 15.6144 18.9398 15.6144ZM23.1325 18.7831C23.1325 19.8195 22.2894 20.6626 21.253 20.6626C20.2167 20.6626 19.3735 19.8194 19.3735 18.7831V16.4473C20.1617 16.3217 20.8386 15.8596 21.253 15.2135C21.6675 15.8596 22.3444 16.3217 23.1325 16.4472V18.7831ZM23.1325 15.5633C22.3047 15.3669 21.6868 14.622 21.6868 13.7349V11.3991C22.2413 11.3108 22.7407 11.0557 23.1325 10.6873V15.5633ZM23.1325 8.68674C23.1325 9.72315 22.2894 10.5662 21.253 10.5662C20.2167 10.5662 19.3735 9.7231 19.3735 8.68674V6.35094C20.1617 6.22532 20.8386 5.76327 21.253 5.11719C21.6675 5.76327 22.3444 6.22536 23.1325 6.35094V8.68674ZM23.1325 5.46697C22.3047 5.27057 21.6868 4.52568 21.6868 3.63852V1.33732H23.1325V5.46697Z" fill="black"/>
</svg>
