<svg width="25" height="24" viewBox="0 0 25 24" fill="none" xmlns="http://www.w3.org/2000/svg">
<g clip-path="url(#clip0)">
<path d="M22.4899 6.17956C22.4776 5.5316 22.4658 4.91947 22.4658 4.32728C22.4658 3.86335 22.0898 3.48722 21.6258 3.48722C18.0331 3.48722 15.2977 2.45473 13.0177 0.237863C12.6915 -0.0793438 12.1725 -0.0792318 11.8464 0.237863C9.56662 2.45473 6.83172 3.48722 3.23928 3.48722C2.77534 3.48722 2.39922 3.86335 2.39922 4.32728C2.39922 4.91958 2.38757 5.53193 2.37514 6.18001C2.25999 12.2101 2.10229 20.4686 12.1569 23.9537C12.2461 23.9846 12.3391 24.0001 12.432 24.0001C12.525 24.0001 12.6181 23.9846 12.7071 23.9537C22.7625 20.4685 22.6051 12.2098 22.4899 6.17956ZM12.4321 22.2685C3.80895 19.136 3.93933 12.2738 4.05504 6.21205C4.06198 5.84824 4.0687 5.49564 4.07341 5.14998C7.43813 5.00796 10.1288 3.98835 12.4321 1.98183C14.7357 3.98835 17.4268 5.00807 20.7917 5.14998C20.7965 5.49553 20.8032 5.84791 20.8101 6.21149C20.9257 12.2735 21.056 19.1359 12.4321 22.2685Z" fill="black"/>
<path d="M15.325 9.08181L11.2704 13.1362L9.54021 11.406C9.21214 11.078 8.68022 11.078 8.35226 11.406C8.02418 11.7342 8.02418 12.266 8.35226 12.5941L10.6764 14.9182C10.8404 15.0822 11.0555 15.1642 11.2704 15.1642C11.4853 15.1642 11.7004 15.0822 11.8644 14.9182L16.5128 10.2699C16.841 9.94181 16.841 9.40989 16.5129 9.08193C16.185 8.75385 15.6531 8.75374 15.325 9.08181Z" fill="black"/>
</g>
<defs>
<clipPath id="clip0">
<rect width="24" height="24" fill="white" transform="translate(0.432617)"/>
</clipPath>
</defs>
</svg>
