<svg width="24" height="17" viewBox="0 0 24 17" fill="none" xmlns="http://www.w3.org/2000/svg">
<path d="M23.591 4.98092H21.7938C21.5835 4.98092 21.4128 5.15136 21.4128 5.36194V8.03469H19.8021L17.4029 5.12596C17.3305 5.03833 17.2228 4.98752 17.109 4.98752H13.2729V2.98411C13.2729 2.77353 13.1022 2.60309 12.8919 2.60309H9.41341V1.2408H12.9163C13.1266 1.2408 13.2973 1.07036 13.2973 0.859782C13.2973 0.649204 13.1266 0.47876 12.9163 0.47876H5.1485C4.93792 0.47876 4.76748 0.649204 4.76748 0.859782C4.76748 1.07036 4.93792 1.2408 5.1485 1.2408H8.65136V2.60309H5.1485C4.93792 2.60309 4.76748 2.77353 4.76748 2.98411V4.98752H2.76406C2.55348 4.98752 2.38304 5.15797 2.38304 5.36855V8.16195H0.765218V5.88674C0.765218 5.67616 0.594774 5.50571 0.384196 5.50571C0.173618 5.50571 0.00317383 5.67616 0.00317383 5.88674V11.1992C0.00317383 11.4095 0.173618 11.5802 0.384196 11.5802C0.594774 11.5802 0.765218 11.4095 0.765218 11.1992V8.92399H2.38304V14.117C2.38304 14.3273 2.55348 14.498 2.76406 14.498H5.00473L6.3378 16.2959C6.40968 16.3927 6.52323 16.4498 6.64388 16.4498H19.6225C19.8328 16.4498 20.0035 16.2791 20.0035 16.0688V12.5456H21.4128V15.178C21.4128 15.3883 21.5835 15.559 21.7938 15.559H23.591C23.8013 15.559 23.972 15.3883 23.972 15.178V5.36194C23.972 5.15162 23.8013 4.98092 23.591 4.98092ZM19.6225 11.7836C19.4122 11.7836 19.2415 11.9543 19.2415 12.1646V15.6878H6.83567L5.5026 13.8899C5.43071 13.7928 5.31716 13.7359 5.19651 13.7359H3.14508V5.74957H5.1485C5.35908 5.74957 5.52952 5.57913 5.52952 5.36855V3.36513H12.5109V5.36855C12.5109 5.57913 12.6816 5.74957 12.8919 5.74957H16.9295L19.3286 8.65829C19.401 8.74618 19.5087 8.79699 19.6225 8.79699H21.4128V11.7838L19.6225 11.7836ZM23.21 14.797H22.1749V5.74296H23.21V14.797Z" fill="black"/>
</svg>
