<svg width="25" height="24" viewBox="0 0 25 24" fill="none" xmlns="http://www.w3.org/2000/svg">
<path d="M24.2748 2.79998V0.399984C24.2748 0.394875 24.2721 0.390609 24.2719 0.385547C24.2711 0.338016 24.2617 0.291047 24.2443 0.246844L24.2437 0.245813C24.2422 0.242156 24.2393 0.239484 24.2377 0.235922C24.2199 0.196922 24.1957 0.161109 24.1663 0.129891C24.1566 0.120187 24.1464 0.111 24.1358 0.102375C24.1106 0.0802031 24.0826 0.0613125 24.0525 0.0462656C24.0402 0.0395625 24.0275 0.0335156 24.0144 0.0282187C23.97 0.0104063 23.9227 0.00084375 23.8747 0H11.0748C10.9687 4.6875e-05 10.867 0.0421875 10.792 0.117188L0.392108 10.5171L0.391499 10.5178C0.359343 10.5511 0.33328 10.5898 0.314483 10.632C0.296108 10.6779 0.284437 10.7261 0.279749 10.7753C0.279187 10.7839 0.27478 10.7912 0.27478 10.8V13.2C0.27478 13.4209 0.453843 13.6 0.674765 13.6H3.67476C4.66842 13.6011 5.47369 14.4063 5.47476 15.4V15.8344L0.392108 20.9171C0.31753 20.9925 0.275437 21.094 0.27478 21.2V23.6C0.27478 23.8209 0.453843 24 0.674765 24H13.4748C13.5287 24 13.5821 23.989 13.6317 23.9678C13.6371 23.9655 13.6409 23.9605 13.6462 23.958C13.6887 23.9384 13.7274 23.9115 13.7606 23.8785L13.7644 23.8758L21.7576 15.4828L24.1576 13.0828C24.2326 13.0078 24.2748 12.9061 24.2748 12.8V10.4C24.2748 10.3949 24.2721 10.3906 24.2719 10.3856C24.2711 10.338 24.2617 10.2911 24.2443 10.2469L24.2437 10.2458C24.2422 10.2422 24.2393 10.2395 24.2377 10.236C24.1985 10.1542 24.1334 10.0875 24.0526 10.0463C24.0402 10.0395 24.0275 10.0335 24.0145 10.0282C23.97 10.0104 23.9227 10.0008 23.8748 9.99998H20.8748C20.8407 10.0022 20.8071 10.009 20.7748 10.0202C20.7425 10.0091 20.7089 10.0023 20.6748 9.99998C19.7417 9.99712 18.9662 9.28036 18.89 8.35036L24.1574 3.08306C24.232 3.00773 24.2742 2.90611 24.2748 2.79998ZM11.2404 0.800016H22.9091L13.3091 10.4H1.64039L11.2404 0.800016ZM5.47476 16.9656V19C5.47369 19.9936 4.66842 20.7989 3.67476 20.8H1.64039L5.47476 16.9656ZM13.0748 23.2H1.0748V21.6H3.67481C5.11008 21.5984 6.27314 20.4353 6.27483 19V15.4C6.27319 13.9647 5.11008 12.8017 3.67481 12.8H1.0748V11.2H13.0748V12.8H10.4748C9.03951 12.8016 7.87645 13.9647 7.87476 15.4V19C7.87641 20.4353 9.03951 21.5983 10.4748 21.6H13.0748V23.2ZM23.4748 12.6344L21.1849 14.9242L13.8748 22.5999V21.3599L21.7576 13.0828L23.4748 11.3656V12.6344H23.4748ZM20.6748 10.8C20.7089 10.7977 20.7425 10.791 20.7748 10.7798C20.8071 10.7909 20.8407 10.7977 20.8747 10.8H22.9091L21.1849 12.5242L13.3033 20.8H10.4748C9.48112 20.7989 8.67586 19.9936 8.67478 19V15.4C8.67586 14.4063 9.48112 13.6011 10.4748 13.6H13.4748C13.5809 13.5997 13.6825 13.5575 13.7577 13.4827L18.2123 9.02803C18.5685 10.0854 19.559 10.7982 20.6748 10.8ZM23.4748 2.63438L18.1921 7.91705L18.1919 7.91728L13.8748 12.2344V10.9656L23.4748 1.36561V2.63438Z" fill="#151515"/>
</svg>
