<svg width="24" height="24" viewBox="0 0 24 24" fill="none" xmlns="http://www.w3.org/2000/svg">
<path d="M21.8906 11.1094H20.0976L23.8963 2.2458C24.0493 1.88889 24.0436 1.53089 23.6867 1.37793C23.3298 1.22498 22.9444 1.3349 22.7915 1.69181L18.7553 11.1094L5.20354 11.1094L1.16741 1.69182C1.01446 1.33491 0.736807 1.26271 0.379807 1.41575C0.0229011 1.56871 -0.0492187 1.88884 0.103734 2.2458L3.90244 11.1094H2.10938C0.946266 11.1094 0 12.0557 0 13.2188V20.4376C0 21.6007 0.946266 22.5469 2.10938 22.5469H2.85938V23.2969C2.85938 23.6852 3.07452 24.0001 3.46283 24.0001C3.85115 24.0001 4.07654 23.6852 4.07654 23.2969V22.5469H19.9648V23.2969C19.9648 23.6852 20.1674 24.0001 20.5557 24.0001C20.9441 24.0001 21.1406 23.6852 21.1406 23.2969V22.5469H21.8906C23.0537 22.5469 24 21.6007 24 20.4376V13.2188C24 12.0557 23.0537 11.1094 21.8906 11.1094ZM23.0043 20.4376C23.0043 21.0727 22.4645 21.4212 21.8906 21.4212H2.10938C1.47694 21.4212 1.08907 21.1159 1.08907 20.4376V13.2188C1.08907 12.7179 1.43375 12.1565 2.10938 12.1565H21.8906C22.4861 12.1565 23.0043 12.6315 23.0043 13.2188V20.4376Z" fill="#151515"/>
<path d="M14.9672 15.528C14.6643 15.528 14.4187 15.8428 14.4187 16.2311V17.6373C14.4187 18.0256 14.6643 18.3405 14.9672 18.3405C15.2701 18.3405 15.5157 18.0256 15.5157 17.6373V16.2311C15.5157 15.8428 15.2701 15.528 14.9672 15.528Z" fill="#151515"/>
<path d="M17.7485 15.528C17.4284 15.528 17.1689 15.8428 17.1689 16.2311V17.6373C17.1689 18.0256 17.4284 18.3405 17.7485 18.3405C18.0686 18.3405 18.3281 18.0256 18.3281 17.6373V16.2311C18.3281 15.8428 18.0686 15.528 17.7485 15.528Z" fill="#151515"/>
<path d="M20.5526 15.528C20.228 15.528 19.9647 15.8428 19.9647 16.2311V17.6373C19.9647 18.0256 20.228 18.3405 20.5526 18.3405C20.8773 18.3405 21.1406 18.0256 21.1406 17.6373V16.2311C21.1406 15.8428 20.8773 15.528 20.5526 15.528Z" fill="#151515"/>
</svg>
