<svg width="25" height="25" viewBox="0 0 25 25" fill="none" xmlns="http://www.w3.org/2000/svg">
<path d="M24.3445 18.6279H21.0089V14.8506H24.3445C24.6462 14.8506 24.8917 14.5531 24.8917 14.1873V10.0321C24.8917 9.66634 24.6462 9.36877 24.3445 9.36877H21.0089V5.40251C21.0089 5.03676 20.7634 4.7392 20.4617 4.7392H17.1278V0.772996C17.1278 0.407246 16.8823 0.10968 16.5806 0.10968H14.7491C14.5549 0.10968 14.3976 0.300481 14.3976 0.53583C14.3976 0.771178 14.5549 0.961979 14.7491 0.961979H16.4247V4.73925H12.8917H9.36239V0.961979H15.3312C15.5254 0.961979 15.6827 0.771178 15.6827 0.53583C15.6827 0.300481 15.5254 0.10968 15.3312 0.10968H9.01083H1.44086C1.13913 0.10968 0.893646 0.407246 0.893646 0.772996V5.12074C0.892427 5.13546 0.891724 5.15035 0.891724 5.1654V9.79498C0.891724 9.81004 0.892427 9.82492 0.893692 9.83958V14.3799C0.892427 14.3946 0.891724 14.4094 0.891724 14.4245V19.9333C0.891724 20.1687 1.04913 20.3595 1.24329 20.3595C1.43744 20.3595 1.59485 20.1687 1.59485 19.9333V14.8506H4.77451V18.6279H1.59485V17.6439C1.59485 17.4085 1.43744 17.2177 1.24329 17.2177C1.04913 17.2177 0.891724 17.4085 0.891724 17.6439V19.0541C0.891724 19.0691 0.892427 19.084 0.893692 19.0987V23.4464C0.893692 23.8122 1.13918 24.1097 1.44091 24.1097H9.01065H16.7745H16.7763H24.3445C24.6462 24.1097 24.8917 23.8121 24.8917 23.4464V19.2912C24.8917 18.9254 24.6462 18.6279 24.3445 18.6279ZM20.6573 10.2211H24.1886V13.9983H20.6573H17.1278V10.2211H20.6573ZM13.2433 5.59155H16.7762H20.3058V9.36883H16.7762H16.7745H13.2433V5.59155ZM16.4229 10.2211V13.9983H12.8919H9.36239V10.2211H12.8917H16.4229ZM12.5401 5.59155V9.36883H9.01083H5.47764V5.59155H12.5401ZM1.59682 0.961979H8.65908V4.73925H5.12612H1.59682V0.961979ZM1.59485 5.5915H4.77451V9.36877H1.59485V5.5915ZM1.59682 13.9983V10.2211H5.12612H8.65908V13.9983H5.12631H1.59682ZM8.65908 23.2574H1.59682V19.4802H5.12612H8.65908V23.2574ZM9.01083 18.6279H5.47787V14.8506H9.0106H12.5401V18.6279H9.01083ZM16.4229 23.2574H9.36239V19.4802H12.8917H16.4229V23.2574ZM16.7762 18.6279H16.7745H13.2435V14.8506H16.7745H16.7762H20.3058V18.6279H16.7762ZM24.1886 23.2574H17.1278V19.4802H20.6573H24.1886V23.2574Z" fill="#151515"/>
</svg>
