<svg width="11" height="24" viewBox="0 0 11 24" fill="none" xmlns="http://www.w3.org/2000/svg">
<path d="M10.5838 24H9.01596C8.79934 24 8.62378 23.8231 8.62378 23.6051V0.694678C8.62378 0.476536 8.79934 0.299622 9.01596 0.299622H10.5838C10.8002 0.299622 10.9757 0.476536 10.9757 0.694678V23.6051C10.9757 23.8231 10.8002 24 10.5838 24ZM9.40772 23.2099H10.1918V1.08959H9.40772V23.2099Z" fill="#151515"/>
<path d="M9.01594 24C8.96498 24.0001 8.91445 23.9901 8.86737 23.9708L0.243465 20.4157C0.09618 20.3549 0 20.2103 0 20.05V4.24976C0 4.08919 0.09618 3.94482 0.243465 3.88406L8.86737 0.328987C8.98824 0.279081 9.1259 0.293113 9.23429 0.366598C9.34281 0.439939 9.40798 0.563041 9.4077 0.694679V23.6051C9.4077 23.8231 9.23228 24 9.01594 24ZM0.783939 19.7848L8.62376 23.0168V1.283L0.783939 4.51477V19.7848Z" fill="#151515"/>
<path d="M7.44789 21.7521C7.39406 21.7521 7.34051 21.7408 7.29127 21.7189L1.80328 19.3014C1.66044 19.2387 1.56828 19.0965 1.56799 18.9395V5.36061C1.56828 5.20351 1.66044 5.0616 1.80328 4.99882L7.29127 2.58133C7.41229 2.52809 7.55196 2.53981 7.66264 2.61272C7.77318 2.68577 7.83993 2.81003 7.83993 2.94311V21.3571C7.83993 21.5751 7.66451 21.7521 7.44789 21.7521ZM2.35222 18.6809L7.05599 20.7531V3.54662L2.35222 5.61882V18.6809Z" fill="#151515"/>
<path d="M5.09582 14.1249C5.04615 14.125 4.99663 14.1155 4.95055 14.0968C4.8538 14.0579 4.77642 13.982 4.73551 13.8858C4.69445 13.7894 4.69316 13.6807 4.73178 13.5833L5.51571 11.6083C5.57529 11.4582 5.71941 11.3598 5.87976 11.3598H6.27195C6.48828 11.3598 6.66384 11.5367 6.66384 11.7549C6.66384 11.973 6.48828 12.1498 6.27195 12.1498H6.14519L5.46016 13.8764C5.40059 14.0265 5.25632 14.1249 5.09582 14.1249Z" fill="#151515"/>
</svg>
