<svg width="24" height="24" viewBox="0 0 24 24" fill="none" xmlns="http://www.w3.org/2000/svg">
<g clip-path="url(#clip0)">
<path d="M19.4413 -0.0844727H4.4742C1.96053 -0.0844727 -0.0844727 1.96053 -0.0844727 4.4742V19.4413C-0.0844727 21.955 1.96053 24 4.4742 24H19.4413C21.955 24 24 21.9547 24 19.4413V4.4742C24 1.96053 21.955 -0.0844727 19.4413 -0.0844727ZM23.1096 19.4413C23.1096 21.4641 21.4641 23.1096 19.4413 23.1096H4.4742C2.45145 23.1096 0.805951 21.4641 0.805951 19.4413V4.4742C0.805951 2.45145 2.45145 0.805951 4.4742 0.805951H19.4413C21.4641 0.805951 23.1096 2.45145 23.1096 4.4742V19.4413Z" fill="#231F20"/>
<path d="M11.9564 2.604C6.79881 2.604 2.60254 6.79998 2.60254 11.9579C2.60254 17.1158 6.79851 21.3121 11.9564 21.3121C17.115 21.3121 21.3115 17.1158 21.3115 11.9579C21.3118 6.79998 17.115 2.604 11.9564 2.604ZM12.4016 20.4095V16.4246C12.4016 16.1788 12.2025 15.9794 11.9564 15.9794C11.7104 15.9794 11.5112 16.1788 11.5112 16.4246V20.4095C7.0505 20.1771 3.49296 16.4753 3.49296 11.9576C3.49296 7.44019 7.0505 3.7384 11.5112 3.506V7.49094C11.5112 7.7367 11.7104 7.93616 11.9564 7.93616C12.2025 7.93616 12.4016 7.7367 12.4016 7.49094V3.506C16.863 3.7384 20.4211 7.44019 20.4211 11.9576C20.4214 16.4753 16.863 20.1771 12.4016 20.4095Z" fill="#231F20"/>
<path d="M8.69335 9.38794C7.27639 9.38794 6.12329 10.5413 6.12329 11.9589C6.12329 13.3753 7.27609 14.5278 8.69335 14.5278C10.1106 14.5278 11.2634 13.3753 11.2634 11.9589C11.2634 10.5413 10.1106 9.38794 8.69335 9.38794ZM8.69335 13.6373C7.76731 13.6373 7.01371 12.8843 7.01371 11.9589C7.01371 11.0323 7.76731 10.2784 8.69335 10.2784C9.61939 10.2784 10.373 11.0323 10.373 11.9589C10.373 12.8843 9.61939 13.6373 8.69335 13.6373Z" fill="#231F20"/>
<path d="M15.222 9.38794C13.8051 9.38794 12.652 10.5413 12.652 11.9589C12.652 13.3753 13.8048 14.5278 15.222 14.5278C16.6393 14.5278 17.7921 13.3753 17.7921 11.9589C17.7921 10.5413 16.6393 9.38794 15.222 9.38794ZM15.222 13.6373C14.296 13.6373 13.5424 12.8843 13.5424 11.9589C13.5424 11.0323 14.296 10.2784 15.222 10.2784C16.1481 10.2784 16.9017 11.0323 16.9017 11.9589C16.9017 12.8843 16.1484 13.6373 15.222 13.6373Z" fill="#231F20"/>
</g>
<defs>
<clipPath id="clip0">
<rect width="24" height="24" fill="white"/>
</clipPath>
</defs>
</svg>
