<?xml version="1.0" encoding="utf-8"?>
<!-- Generator: Adobe Illustrator 21.0.0, SVG Export Plug-In . SVG Version: 6.00 Build 0)  -->
<svg version="1.1" id="Layer_1" xmlns="http://www.w3.org/2000/svg" xmlns:xlink="http://www.w3.org/1999/xlink" x="0px" y="0px"
	 viewBox="0 0 90 93.1" style="enable-background:new 0 0 90 93.1;" xml:space="preserve">
<style type="text/css">
	.st0{fill:#F0536B;}
	.st1{fill:none;stroke:#373636;stroke-width:2;stroke-linecap:square;stroke-miterlimit:10;}
</style>
<polygon class="st0" points="45.5,21.1 45.5,56.1 67,74.1 45.5,91.1 23.7,74.1 23.7,37.8 "/>
<line class="st1" x1="1" y1="20.4" x2="1" y2="55"/>
<line class="st1" x1="23" y1="38.4" x2="23" y2="73"/>
<line class="st1" x1="2" y1="56.1" x2="45" y2="91.3"/>
<line class="st1" x1="45.5" y1="91.7" x2="88" y2="56.1"/>
<line class="st1" x1="67" y1="36.8" x2="67" y2="73"/>
<line class="st1" x1="45" y1="21.2" x2="45" y2="90.9"/>
<line class="st1" x1="89" y1="21.2" x2="89" y2="55.8"/>
<line class="st1" x1="23.5" y1="73.6" x2="88.1" y2="20.9"/>
<line class="st1" x1="1.5" y1="19.5" x2="67.1" y2="73.4"/>
<line class="st1" x1="1.5" y1="19.6" x2="23" y2="1.9"/>
<line class="st1" x1="23.2" y1="38.6" x2="67" y2="2.7"/>
<line class="st1" x1="67.5" y1="37.6" x2="23.5" y2="1.5"/>
<line class="st1" x1="88.5" y1="19.6" x2="67.5" y2="2.3"/>
</svg>
